{
  "title" : "",
  "description" : "",
  "author" : "",
  "targetLoudness" : -18.0,
  "shouldApplyLoudnessNormalization" : true,
  "videoFormatFrameRate" : 30,
  "audioFormatSampleRate" : 44100,
  "width" : 1920.0,
  "height" : 1080.0,
  "version" : "5.0",
  "editRate" : 30,
  "authoringClientName" :  {
    "name" : "Camtasia",
    "platform" : "Windows",
    "version" : "21.0"
  },
  "sourceBin" : [
    {
      "id" : 1,
      "src" : "Slide 01.01.m4a",
      "rect" : [0, 0, 0, 0],
      "lastMod" : "20220905T225807",
      "loudnessNormalization" : true,
      "sourceTracks" : [
        {
          "range" : [0, 106022712],
          "type" : 2,
          "editRate" : 10000000,
          "trackRect" : [0, 0, 0, 0],
          "sampleRate" : 48000,
          "bitDepth" : 16,
          "numChannels" : 1,
          "integratedLUFS" : -19.016035458212,
          "peakLevel" : 0.629411578178406,
          "metaData" : ""
        }
      ],
      "metadata" : {
        "timeAdded" : "20220815T124555.913688"
      }
    },
    {
      "id" : 2,
      "src" : "Slide 01.02.m4a",
      "rect" : [0, 0, 0, 0],
      "lastMod" : "20220905T225807",
      "loudnessNormalization" : true,
      "sourceTracks" : [
        {
          "range" : [0, 80210000],
          "type" : 2,
          "editRate" : 10000000,
          "trackRect" : [0, 0, 0, 0],
          "sampleRate" : 48000,
          "bitDepth" : 16,
          "numChannels" : 1,
          "integratedLUFS" : -21.4385471361778,
          "peakLevel" : 0.51432067155838,
          "metaData" : ""
        }
      ],
      "metadata" : {
        "timeAdded" : "20220815T124555.915688"
      }
    },
    {
      "id" : 3,
      "src" : "Slide 02.01.m4a",
      "rect" : [0, 0, 0, 0],
      "lastMod" : "20220905T225807",
      "loudnessNormalization" : true,
      "sourceTracks" : [
        {
          "range" : [0, 87036456],
          "type" : 2,
          "editRate" : 10000000,
          "trackRect" : [0, 0, 0, 0],
          "sampleRate" : 48000,
          "bitDepth" : 16,
          "numChannels" : 1,
          "integratedLUFS" : -22.3056654388224,
          "peakLevel" : 0.360920757055283,
          "metaData" : ""
        }
      ],
      "metadata" : {
        "timeAdded" : "20220815T124555.918687"
      }
    },
    {
      "id" : 4,
      "src" : "Slide 02.02.m4a",
      "rect" : [0, 0, 0, 0],
      "lastMod" : "20220905T225807",
      "loudnessNormalization" : true,
      "sourceTracks" : [
        {
          "range" : [0, 191152288],
          "type" : 2,
          "editRate" : 10000000,
          "trackRect" : [0, 0, 0, 0],
          "sampleRate" : 48000,
          "bitDepth" : 16,
          "numChannels" : 1,
          "integratedLUFS" : -21.7198024253173,
          "peakLevel" : 0.478192448616028,
          "metaData" : ""
        }
      ],
      "metadata" : {
        "timeAdded" : "20220815T124555.920689"
      }
    },
    {
      "id" : 5,
      "src" : "Slide 02.03.m4a",
      "rect" : [0, 0, 0, 0],
      "lastMod" : "20220905T225807",
      "loudnessNormalization" : true,
      "sourceTracks" : [
        {
          "range" : [0, 103676040],
          "type" : 2,
          "editRate" : 10000000,
          "trackRect" : [0, 0, 0, 0],
          "sampleRate" : 48000,
          "bitDepth" : 16,
          "numChannels" : 1,
          "integratedLUFS" : -22.7553758909452,
          "peakLevel" : 0.465974271297455,
          "metaData" : ""
        }
      ],
      "metadata" : {
        "timeAdded" : "20220815T124555.922689"
      }
    },
    {
      "id" : 6,
      "src" : "Slide 03.m4a",
      "rect" : [0, 0, 0, 0],
      "lastMod" : "20220905T225807",
      "loudnessNormalization" : true,
      "sourceTracks" : [
        {
          "range" : [0, 283956256],
          "type" : 2,
          "editRate" : 10000000,
          "trackRect" : [0, 0, 0, 0],
          "sampleRate" : 48000,
          "bitDepth" : 16,
          "numChannels" : 1,
          "integratedLUFS" : -19.4168996127899,
          "peakLevel" : 0.652052819728851,
          "metaData" : ""
        }
      ],
      "metadata" : {
        "timeAdded" : "20220815T124555.926689"
      }
    },
    {
      "id" : 7,
      "src" : "Slide 04.01.m4a",
      "rect" : [0, 0, 0, 0],
      "lastMod" : "20220905T225807",
      "loudnessNormalization" : true,
      "sourceTracks" : [
        {
          "range" : [0, 143998128],
          "type" : 2,
          "editRate" : 10000000,
          "trackRect" : [0, 0, 0, 0],
          "sampleRate" : 48000,
          "bitDepth" : 16,
          "numChannels" : 1,
          "integratedLUFS" : -18.9037666640982,
          "peakLevel" : 0.694160044193268,
          "metaData" : ""
        }
      ],
      "metadata" : {
        "timeAdded" : "20220815T124555.931689"
      }
    },
    {
      "id" : 8,
      "src" : "Slide 04.02.m4a",
      "rect" : [0, 0, 0, 0],
      "lastMod" : "20220905T225807",
      "loudnessNormalization" : true,
      "sourceTracks" : [
        {
          "range" : [0, 171305424],
          "type" : 2,
          "editRate" : 10000000,
          "trackRect" : [0, 0, 0, 0],
          "sampleRate" : 48000,
          "bitDepth" : 16,
          "numChannels" : 1,
          "integratedLUFS" : -18.1671245002446,
          "peakLevel" : 0.665069699287415,
          "metaData" : ""
        }
      ],
      "metadata" : {
        "timeAdded" : "20220815T124555.934689"
      }
    },
    {
      "id" : 9,
      "src" : "Slide 04.03.m4a",
      "rect" : [0, 0, 0, 0],
      "lastMod" : "20220905T225807",
      "loudnessNormalization" : true,
      "sourceTracks" : [
        {
          "range" : [0, 111576664],
          "type" : 2,
          "editRate" : 10000000,
          "trackRect" : [0, 0, 0, 0],
          "sampleRate" : 48000,
          "bitDepth" : 16,
          "numChannels" : 1,
          "integratedLUFS" : -21.1393792540234,
          "peakLevel" : 0.517066717147827,
          "metaData" : ""
        }
      ],
      "metadata" : {
        "timeAdded" : "20220815T124555.937717"
      }
    },
    {
      "id" : 10,
      "src" : "Slide 05.01.m4a",
      "rect" : [0, 0, 0, 0],
      "lastMod" : "20220905T225807",
      "loudnessNormalization" : true,
      "sourceTracks" : [
        {
          "range" : [0, 219102288],
          "type" : 2,
          "editRate" : 10000000,
          "trackRect" : [0, 0, 0, 0],
          "sampleRate" : 48000,
          "bitDepth" : 16,
          "numChannels" : 1,
          "integratedLUFS" : -21.0188475261095,
          "peakLevel" : 0.813342988491058,
          "metaData" : ""
        }
      ],
      "metadata" : {
        "timeAdded" : "20220815T124555.943688"
      }
    },
    {
      "id" : 11,
      "src" : "Slide 05.02.m4a",
      "rect" : [0, 0, 0, 0],
      "lastMod" : "20220905T225807",
      "loudnessNormalization" : true,
      "sourceTracks" : [
        {
          "range" : [0, 261761664],
          "type" : 2,
          "editRate" : 10000000,
          "trackRect" : [0, 0, 0, 0],
          "sampleRate" : 48000,
          "bitDepth" : 16,
          "numChannels" : 1,
          "integratedLUFS" : -20.524468457051,
          "peakLevel" : 0.55257785320282,
          "metaData" : ""
        }
      ],
      "metadata" : {
        "timeAdded" : "20220815T124555.946689"
      }
    },
    {
      "id" : 12,
      "src" : "Slide 09.01.m4a",
      "rect" : [0, 0, 0, 0],
      "lastMod" : "20220905T225807",
      "loudnessNormalization" : true,
      "sourceTracks" : [
        {
          "range" : [0, 256649168],
          "type" : 2,
          "editRate" : 10000000,
          "trackRect" : [0, 0, 0, 0],
          "sampleRate" : 48000,
          "bitDepth" : 16,
          "numChannels" : 1,
          "integratedLUFS" : -21.2682706658726,
          "peakLevel" : 0.539218544960022,
          "metaData" : ""
        }
      ],
      "metadata" : {
        "timeAdded" : "20220815T124555.978688"
      }
    },
    {
      "id" : 13,
      "src" : "Slide 09.02.m4a",
      "rect" : [0, 0, 0, 0],
      "lastMod" : "20220905T225807",
      "loudnessNormalization" : true,
      "sourceTracks" : [
        {
          "range" : [0, 159791872],
          "type" : 2,
          "editRate" : 10000000,
          "trackRect" : [0, 0, 0, 0],
          "sampleRate" : 48000,
          "bitDepth" : 16,
          "numChannels" : 1,
          "integratedLUFS" : -18.7248567655446,
          "peakLevel" : 0.685312628746033,
          "metaData" : ""
        }
      ],
      "metadata" : {
        "timeAdded" : "20220815T124555.983688"
      }
    },
    {
      "id" : 14,
      "src" : "Slide 09.03.m4a",
      "rect" : [0, 0, 0, 0],
      "lastMod" : "20220905T225807",
      "loudnessNormalization" : true,
      "sourceTracks" : [
        {
          "range" : [0, 121183544],
          "type" : 2,
          "editRate" : 10000000,
          "trackRect" : [0, 0, 0, 0],
          "sampleRate" : 48000,
          "bitDepth" : 16,
          "numChannels" : 1,
          "integratedLUFS" : -20.3835416019929,
          "peakLevel" : 0.593606889247894,
          "metaData" : ""
        }
      ],
      "metadata" : {
        "timeAdded" : "20220815T124555.987688"
      }
    },
    {
      "id" : 15,
      "src" : "Slide 09.04.m4a",
      "rect" : [0, 0, 0, 0],
      "lastMod" : "20220905T225807",
      "loudnessNormalization" : true,
      "sourceTracks" : [
        {
          "range" : [0, 129496456],
          "type" : 2,
          "editRate" : 10000000,
          "trackRect" : [0, 0, 0, 0],
          "sampleRate" : 48000,
          "bitDepth" : 16,
          "numChannels" : 1,
          "integratedLUFS" : -21.8737286215002,
          "peakLevel" : 0.494680970907211,
          "metaData" : ""
        }
      ],
      "metadata" : {
        "timeAdded" : "20220815T124555.991690"
      }
    },
    {
      "id" : 16,
      "src" : "Slide 13.01.m4a",
      "rect" : [0, 0, 0, 0],
      "lastMod" : "20220905T225807",
      "loudnessNormalization" : true,
      "sourceTracks" : [
        {
          "range" : [0, 225500832],
          "type" : 2,
          "editRate" : 10000000,
          "trackRect" : [0, 0, 0, 0],
          "sampleRate" : 48000,
          "bitDepth" : 16,
          "numChannels" : 1,
          "integratedLUFS" : -20.4535820973359,
          "peakLevel" : 0.836903750896454,
          "metaData" : ""
        }
      ],
      "metadata" : {
        "timeAdded" : "20220815T124556.033689"
      }
    },
    {
      "id" : 17,
      "src" : "Slide 15.01.m4a",
      "rect" : [0, 0, 0, 0],
      "lastMod" : "20220905T225808",
      "loudnessNormalization" : true,
      "sourceTracks" : [
        {
          "range" : [0, 99409584],
          "type" : 2,
          "editRate" : 10000000,
          "trackRect" : [0, 0, 0, 0],
          "sampleRate" : 48000,
          "bitDepth" : 16,
          "numChannels" : 1,
          "integratedLUFS" : -21.2660224009475,
          "peakLevel" : 0.412376582622528,
          "metaData" : ""
        }
      ],
      "metadata" : {
        "timeAdded" : "20220815T124556.068689"
      }
    },
    {
      "id" : 18,
      "src" : "Slide 16.01.m4a",
      "rect" : [0, 0, 0, 0],
      "lastMod" : "20220905T225808",
      "loudnessNormalization" : true,
      "sourceTracks" : [
        {
          "range" : [0, 200966464],
          "type" : 2,
          "editRate" : 10000000,
          "trackRect" : [0, 0, 0, 0],
          "sampleRate" : 48000,
          "bitDepth" : 16,
          "numChannels" : 1,
          "integratedLUFS" : -22.1874558551555,
          "peakLevel" : 0.533081889152527,
          "metaData" : ""
        }
      ],
      "metadata" : {
        "timeAdded" : "20220815T124556.080717"
      }
    },
    {
      "id" : 19,
      "src" : "Slide 16.03.m4a",
      "rect" : [0, 0, 0, 0],
      "lastMod" : "20220905T225808",
      "loudnessNormalization" : true,
      "sourceTracks" : [
        {
          "range" : [0, 215040416],
          "type" : 2,
          "editRate" : 10000000,
          "trackRect" : [0, 0, 0, 0],
          "sampleRate" : 48000,
          "bitDepth" : 16,
          "numChannels" : 1,
          "integratedLUFS" : -23.2083885595952,
          "peakLevel" : 0.42609566450119,
          "metaData" : ""
        }
      ],
      "metadata" : {
        "timeAdded" : "20220815T124556.093688"
      }
    },
    {
      "id" : 20,
      "src" : "Slide 17.01.m4a",
      "rect" : [0, 0, 0, 0],
      "lastMod" : "20220905T225808",
      "loudnessNormalization" : true,
      "sourceTracks" : [
        {
          "range" : [0, 183252288],
          "type" : 2,
          "editRate" : 10000000,
          "trackRect" : [0, 0, 0, 0],
          "sampleRate" : 48000,
          "bitDepth" : 16,
          "numChannels" : 1,
          "integratedLUFS" : -24.3007740774544,
          "peakLevel" : 0.517340123653412,
          "metaData" : ""
        }
      ],
      "metadata" : {
        "timeAdded" : "20220815T124556.107688"
      }
    },
    {
      "id" : 21,
      "src" : "Slide 18.01.m4a",
      "rect" : [0, 0, 0, 0],
      "lastMod" : "20220905T225808",
      "loudnessNormalization" : true,
      "sourceTracks" : [
        {
          "range" : [0, 185826256],
          "type" : 2,
          "editRate" : 10000000,
          "trackRect" : [0, 0, 0, 0],
          "sampleRate" : 48000,
          "bitDepth" : 16,
          "numChannels" : 1,
          "integratedLUFS" : -20.4641521124195,
          "peakLevel" : 0.685700714588165,
          "metaData" : ""
        }
      ],
      "metadata" : {
        "timeAdded" : "20220815T124556.119688"
      }
    },
    {
      "id" : 22,
      "src" : "Slide 18.02.m4a",
      "rect" : [0, 0, 0, 0],
      "lastMod" : "20220905T225808",
      "loudnessNormalization" : true,
      "sourceTracks" : [
        {
          "range" : [0, 252168544],
          "type" : 2,
          "editRate" : 10000000,
          "trackRect" : [0, 0, 0, 0],
          "sampleRate" : 48000,
          "bitDepth" : 16,
          "numChannels" : 1,
          "integratedLUFS" : -19.0768454105367,
          "peakLevel" : 0.742514610290527,
          "metaData" : ""
        }
      ],
      "metadata" : {
        "timeAdded" : "20220815T124556.126688"
      }
    },
    {
      "id" : 23,
      "src" : "Slide 18.03.m4a",
      "rect" : [0, 0, 0, 0],
      "lastMod" : "20220905T225808",
      "loudnessNormalization" : true,
      "sourceTracks" : [
        {
          "range" : [0, 194346672],
          "type" : 2,
          "editRate" : 10000000,
          "trackRect" : [0, 0, 0, 0],
          "sampleRate" : 48000,
          "bitDepth" : 16,
          "numChannels" : 1,
          "integratedLUFS" : -20.4335076801931,
          "peakLevel" : 0.475353449583054,
          "metaData" : ""
        }
      ],
      "metadata" : {
        "timeAdded" : "20220815T124556.134688"
      }
    },
    {
      "id" : 24,
      "src" : "Slide 18.04.m4a",
      "rect" : [0, 0, 0, 0],
      "lastMod" : "20220905T225808",
      "loudnessNormalization" : true,
      "sourceTracks" : [
        {
          "range" : [0, 128423960],
          "type" : 2,
          "editRate" : 10000000,
          "trackRect" : [0, 0, 0, 0],
          "sampleRate" : 48000,
          "bitDepth" : 16,
          "numChannels" : 1,
          "integratedLUFS" : -19.7852537512985,
          "peakLevel" : 0.543671846389771,
          "metaData" : ""
        }
      ],
      "metadata" : {
        "timeAdded" : "20220815T124556.141690"
      }
    },
    {
      "id" : 25,
      "src" : "Slide 18.05.m4a",
      "rect" : [0, 0, 0, 0],
      "lastMod" : "20220905T225808",
      "loudnessNormalization" : true,
      "sourceTracks" : [
        {
          "range" : [0, 97490416],
          "type" : 2,
          "editRate" : 10000000,
          "trackRect" : [0, 0, 0, 0],
          "sampleRate" : 48000,
          "bitDepth" : 16,
          "numChannels" : 1,
          "integratedLUFS" : -20.2753014245604,
          "peakLevel" : 0.660184860229492,
          "metaData" : ""
        }
      ],
      "metadata" : {
        "timeAdded" : "20220815T124556.149688"
      }
    },
    {
      "id" : 26,
      "src" : "Slide 18.06.m4a",
      "rect" : [0, 0, 0, 0],
      "lastMod" : "20220905T225808",
      "loudnessNormalization" : true,
      "sourceTracks" : [
        {
          "range" : [0, 122670624],
          "type" : 2,
          "editRate" : 10000000,
          "trackRect" : [0, 0, 0, 0],
          "sampleRate" : 48000,
          "bitDepth" : 16,
          "numChannels" : 1,
          "integratedLUFS" : -20.570151106361,
          "peakLevel" : 0.506324768066406,
          "metaData" : ""
        }
      ],
      "metadata" : {
        "timeAdded" : "20220815T124556.156687"
      }
    },
    {
      "id" : 27,
      "src" : "Slide 19.01.m4a",
      "rect" : [0, 0, 0, 0],
      "lastMod" : "20220905T225808",
      "loudnessNormalization" : true,
      "sourceTracks" : [
        {
          "range" : [0, 178138544],
          "type" : 2,
          "editRate" : 10000000,
          "trackRect" : [0, 0, 0, 0],
          "sampleRate" : 48000,
          "bitDepth" : 16,
          "numChannels" : 1,
          "integratedLUFS" : -21.5571193492302,
          "peakLevel" : 0.554072439670563,
          "metaData" : ""
        }
      ],
      "metadata" : {
        "timeAdded" : "20220815T124556.171688"
      }
    },
    {
      "id" : 28,
      "src" : "Slide 19.02.m4a",
      "rect" : [0, 0, 0, 0],
      "lastMod" : "20220905T225808",
      "loudnessNormalization" : true,
      "sourceTracks" : [
        {
          "range" : [0, 149552496],
          "type" : 2,
          "editRate" : 10000000,
          "trackRect" : [0, 0, 0, 0],
          "sampleRate" : 48000,
          "bitDepth" : 16,
          "numChannels" : 1,
          "integratedLUFS" : -20.2028750513822,
          "peakLevel" : 0.568863570690155,
          "metaData" : ""
        }
      ],
      "metadata" : {
        "timeAdded" : "20220815T124556.179692"
      }
    },
    {
      "id" : 29,
      "src" : "Slide 19.03.m4a",
      "rect" : [0, 0, 0, 0],
      "lastMod" : "20220905T225808",
      "loudnessNormalization" : true,
      "sourceTracks" : [
        {
          "range" : [0, 162566048],
          "type" : 2,
          "editRate" : 10000000,
          "trackRect" : [0, 0, 0, 0],
          "sampleRate" : 48000,
          "bitDepth" : 16,
          "numChannels" : 1,
          "integratedLUFS" : -21.8444750969194,
          "peakLevel" : 0.712035477161407,
          "metaData" : ""
        }
      ],
      "metadata" : {
        "timeAdded" : "20220815T124556.187688"
      }
    },
    {
      "id" : 30,
      "src" : "Slide 25.02.m4a",
      "rect" : [0, 0, 0, 0],
      "lastMod" : "20220905T225808",
      "loudnessNormalization" : true,
      "sourceTracks" : [
        {
          "range" : [0, 248327920],
          "type" : 2,
          "editRate" : 10000000,
          "trackRect" : [0, 0, 0, 0],
          "sampleRate" : 48000,
          "bitDepth" : 16,
          "numChannels" : 1,
          "integratedLUFS" : -3.83458975296202,
          "peakLevel" : 1.21454393863678,
          "metaData" : ""
        }
      ],
      "metadata" : {
        "timeAdded" : "20220815T124556.246688"
      }
    },
    {
      "id" : 31,
      "src" : "Slide 25.03.m4a",
      "rect" : [0, 0, 0, 0],
      "lastMod" : "20220905T225808",
      "loudnessNormalization" : true,
      "sourceTracks" : [
        {
          "range" : [0, 58242708],
          "type" : 2,
          "editRate" : 10000000,
          "trackRect" : [0, 0, 0, 0],
          "sampleRate" : 48000,
          "bitDepth" : 16,
          "numChannels" : 1,
          "integratedLUFS" : -11.6392659183985,
          "peakLevel" : 1.05310118198395,
          "metaData" : ""
        }
      ],
      "metadata" : {
        "timeAdded" : "20220815T124556.255717"
      }
    },
    {
      "id" : 32,
      "src" : "Slide 14.01(1).m4a",
      "rect" : [0, 0, 0, 0],
      "lastMod" : "20220905T225808",
      "loudnessNormalization" : true,
      "sourceTracks" : [
        {
          "range" : [0, 120963752],
          "type" : 2,
          "editRate" : 10000000,
          "trackRect" : [0, 0, 0, 0],
          "sampleRate" : 48000,
          "bitDepth" : 16,
          "numChannels" : 1,
          "integratedLUFS" : -21.0516120206155,
          "peakLevel" : 0.519003748893738,
          "metaData" : ""
        }
      ],
      "metadata" : {
        "timeAdded" : "20220815T153334.622051"
      }
    },
    {
      "id" : 33,
      "src" : "Slide 14.02(1).m4a",
      "rect" : [0, 0, 0, 0],
      "lastMod" : "20220905T225808",
      "loudnessNormalization" : true,
      "sourceTracks" : [
        {
          "range" : [0, 59736040],
          "type" : 2,
          "editRate" : 10000000,
          "trackRect" : [0, 0, 0, 0],
          "sampleRate" : 48000,
          "bitDepth" : 16,
          "numChannels" : 1,
          "integratedLUFS" : -22.2646123505559,
          "peakLevel" : 0.397723227739334,
          "metaData" : ""
        }
      ],
      "metadata" : {
        "timeAdded" : "20220815T153334.631082"
      }
    },
    {
      "id" : 34,
      "src" : "Slide 14.03(1).m4a",
      "rect" : [0, 0, 0, 0],
      "lastMod" : "20220905T225808",
      "loudnessNormalization" : true,
      "sourceTracks" : [
        {
          "range" : [0, 111363960],
          "type" : 2,
          "editRate" : 10000000,
          "trackRect" : [0, 0, 0, 0],
          "sampleRate" : 48000,
          "bitDepth" : 16,
          "numChannels" : 1,
          "integratedLUFS" : -20.0954917963603,
          "peakLevel" : 0.548979103565216,
          "metaData" : ""
        }
      ],
      "metadata" : {
        "timeAdded" : "20220815T153334.640053"
      }
    },
    {
      "id" : 35,
      "src" : "Slide 14.04.m4a",
      "rect" : [0, 0, 0, 0],
      "lastMod" : "20220905T225808",
      "loudnessNormalization" : true,
      "sourceTracks" : [
        {
          "range" : [0, 58242084],
          "type" : 2,
          "editRate" : 10000000,
          "trackRect" : [0, 0, 0, 0],
          "sampleRate" : 48000,
          "bitDepth" : 16,
          "numChannels" : 1,
          "integratedLUFS" : -22.7809752270739,
          "peakLevel" : 0.369799852371216,
          "metaData" : ""
        }
      ],
      "metadata" : {
        "timeAdded" : "20220815T153334.649051"
      }
    },
    {
      "id" : 36,
      "src" : "Slide 14.05.m4a",
      "rect" : [0, 0, 0, 0],
      "lastMod" : "20220905T225808",
      "loudnessNormalization" : true,
      "sourceTracks" : [
        {
          "range" : [0, 87476040],
          "type" : 2,
          "editRate" : 10000000,
          "trackRect" : [0, 0, 0, 0],
          "sampleRate" : 48000,
          "bitDepth" : 16,
          "numChannels" : 1,
          "integratedLUFS" : -21.165592214598,
          "peakLevel" : 0.507907807826996,
          "metaData" : ""
        }
      ],
      "metadata" : {
        "timeAdded" : "20220815T153334.658051"
      }
    },
    {
      "id" : 37,
      "src" : "Slide 14.06.m4a",
      "rect" : [0, 0, 0, 0],
      "lastMod" : "20220905T225808",
      "loudnessNormalization" : true,
      "sourceTracks" : [
        {
          "range" : [0, 88110416],
          "type" : 2,
          "editRate" : 10000000,
          "trackRect" : [0, 0, 0, 0],
          "sampleRate" : 48000,
          "bitDepth" : 16,
          "numChannels" : 1,
          "integratedLUFS" : -21.0201659934862,
          "peakLevel" : 0.606387853622437,
          "metaData" : ""
        }
      ],
      "metadata" : {
        "timeAdded" : "20220815T153334.667050"
      }
    },
    {
      "id" : 38,
      "src" : "Slide 20.01.m4a",
      "rect" : [0, 0, 0, 0],
      "lastMod" : "20220905T225808",
      "loudnessNormalization" : true,
      "sourceTracks" : [
        {
          "range" : [0, 210354368],
          "type" : 2,
          "editRate" : 10000000,
          "trackRect" : [0, 0, 0, 0],
          "sampleRate" : 48000,
          "bitDepth" : 16,
          "numChannels" : 1,
          "integratedLUFS" : -18.8638052465663,
          "peakLevel" : 0.688834428787231,
          "metaData" : ""
        }
      ],
      "metadata" : {
        "timeAdded" : "20220817T025241.036460"
      }
    },
    {
      "id" : 39,
      "src" : "Slide 21.01.m4a",
      "rect" : [0, 0, 0, 0],
      "lastMod" : "20220905T225808",
      "loudnessNormalization" : true,
      "sourceTracks" : [
        {
          "range" : [0, 129925000],
          "type" : 2,
          "editRate" : 10000000,
          "trackRect" : [0, 0, 0, 0],
          "sampleRate" : 48000,
          "bitDepth" : 16,
          "numChannels" : 1,
          "integratedLUFS" : -19.383291489552,
          "peakLevel" : 0.630859673023224,
          "metaData" : ""
        }
      ],
      "metadata" : {
        "timeAdded" : "20220817T025241.046457"
      }
    },
    {
      "id" : 40,
      "src" : "Slide 21.02.m4a",
      "rect" : [0, 0, 0, 0],
      "lastMod" : "20220905T225808",
      "loudnessNormalization" : true,
      "sourceTracks" : [
        {
          "range" : [0, 193919584],
          "type" : 2,
          "editRate" : 10000000,
          "trackRect" : [0, 0, 0, 0],
          "sampleRate" : 48000,
          "bitDepth" : 16,
          "numChannels" : 1,
          "integratedLUFS" : -21.1520872929565,
          "peakLevel" : 0.376304686069489,
          "metaData" : ""
        }
      ],
      "metadata" : {
        "timeAdded" : "20220817T025241.056460"
      }
    },
    {
      "id" : 41,
      "src" : "Slide 21.03.m4a",
      "rect" : [0, 0, 0, 0],
      "lastMod" : "20220905T225808",
      "loudnessNormalization" : true,
      "sourceTracks" : [
        {
          "range" : [0, 171312704],
          "type" : 2,
          "editRate" : 10000000,
          "trackRect" : [0, 0, 0, 0],
          "sampleRate" : 48000,
          "bitDepth" : 16,
          "numChannels" : 1,
          "integratedLUFS" : -20.658630030915,
          "peakLevel" : 0.550463855266571,
          "metaData" : ""
        }
      ],
      "metadata" : {
        "timeAdded" : "20220817T025241.066431"
      }
    },
    {
      "id" : 42,
      "src" : "Slide 22.01.m4a",
      "rect" : [0, 0, 0, 0],
      "lastMod" : "20220905T225808",
      "loudnessNormalization" : true,
      "sourceTracks" : [
        {
          "range" : [0, 142725632],
          "type" : 2,
          "editRate" : 10000000,
          "trackRect" : [0, 0, 0, 0],
          "sampleRate" : 48000,
          "bitDepth" : 16,
          "numChannels" : 1,
          "integratedLUFS" : -20.7647306674302,
          "peakLevel" : 0.498391300439835,
          "metaData" : ""
        }
      ],
      "metadata" : {
        "timeAdded" : "20220817T025241.076431"
      }
    },
    {
      "id" : 43,
      "src" : "Slide 23.01.m4a",
      "rect" : [0, 0, 0, 0],
      "lastMod" : "20220905T225808",
      "loudnessNormalization" : true,
      "sourceTracks" : [
        {
          "range" : [0, 142511040],
          "type" : 2,
          "editRate" : 10000000,
          "trackRect" : [0, 0, 0, 0],
          "sampleRate" : 48000,
          "bitDepth" : 16,
          "numChannels" : 1,
          "integratedLUFS" : -21.4296111236992,
          "peakLevel" : 0.630029022693634,
          "metaData" : ""
        }
      ],
      "metadata" : {
        "timeAdded" : "20220817T085805.096191"
      }
    },
    {
      "id" : 44,
      "src" : "Slide 23.02.m4a",
      "rect" : [0, 0, 0, 0],
      "lastMod" : "20220905T225808",
      "loudnessNormalization" : true,
      "sourceTracks" : [
        {
          "range" : [0, 123951040],
          "type" : 2,
          "editRate" : 10000000,
          "trackRect" : [0, 0, 0, 0],
          "sampleRate" : 48000,
          "bitDepth" : 16,
          "numChannels" : 1,
          "integratedLUFS" : -19.9573645643769,
          "peakLevel" : 0.575845956802368,
          "metaData" : ""
        }
      ],
      "metadata" : {
        "timeAdded" : "20220817T085805.107219"
      }
    },
    {
      "id" : 45,
      "src" : "Slide 23.03.m4a",
      "rect" : [0, 0, 0, 0],
      "lastMod" : "20220905T225808",
      "loudnessNormalization" : true,
      "sourceTracks" : [
        {
          "range" : [0, 231473744],
          "type" : 2,
          "editRate" : 10000000,
          "trackRect" : [0, 0, 0, 0],
          "sampleRate" : 48000,
          "bitDepth" : 16,
          "numChannels" : 1,
          "integratedLUFS" : -20.9653352523458,
          "peakLevel" : 0.71523106098175,
          "metaData" : ""
        }
      ],
      "metadata" : {
        "timeAdded" : "20220817T085805.118188"
      }
    },
    {
      "id" : 46,
      "src" : "Slide 24.01.m4a",
      "rect" : [0, 0, 0, 0],
      "lastMod" : "20220905T225808",
      "loudnessNormalization" : true,
      "sourceTracks" : [
        {
          "range" : [0, 341129792],
          "type" : 2,
          "editRate" : 10000000,
          "trackRect" : [0, 0, 0, 0],
          "sampleRate" : 48000,
          "bitDepth" : 16,
          "numChannels" : 1,
          "integratedLUFS" : -22.3138882760384,
          "peakLevel" : 0.665395975112915,
          "metaData" : ""
        }
      ],
      "metadata" : {
        "timeAdded" : "20220817T085805.128188"
      }
    },
    {
      "id" : 47,
      "src" : "Slide 06.01(1).m4a",
      "rect" : [0, 0, 0, 0],
      "lastMod" : "20220905T225807",
      "loudnessNormalization" : true,
      "sourceTracks" : [
        {
          "range" : [0, 205446880],
          "type" : 2,
          "editRate" : 10000000,
          "trackRect" : [0, 0, 0, 0],
          "sampleRate" : 48000,
          "bitDepth" : 16,
          "numChannels" : 1,
          "integratedLUFS" : -19.1357393104887,
          "peakLevel" : 0.834973037242889,
          "metaData" : ""
        }
      ],
      "metadata" : {
        "timeAdded" : "20220817T132459.610727"
      }
    },
    {
      "id" : 48,
      "src" : "Slide 06.02.m4a",
      "rect" : [0, 0, 0, 0],
      "lastMod" : "20220905T225807",
      "loudnessNormalization" : true,
      "sourceTracks" : [
        {
          "range" : [0, 90030416],
          "type" : 2,
          "editRate" : 10000000,
          "trackRect" : [0, 0, 0, 0],
          "sampleRate" : 48000,
          "bitDepth" : 16,
          "numChannels" : 1,
          "integratedLUFS" : -20.778140043374,
          "peakLevel" : 0.547977328300476,
          "metaData" : ""
        }
      ],
      "metadata" : {
        "timeAdded" : "20220817T132459.620727"
      }
    },
    {
      "id" : 49,
      "src" : "Slide 06.03.m4a",
      "rect" : [0, 0, 0, 0],
      "lastMod" : "20220905T225807",
      "loudnessNormalization" : true,
      "sourceTracks" : [
        {
          "range" : [0, 126084376],
          "type" : 2,
          "editRate" : 10000000,
          "trackRect" : [0, 0, 0, 0],
          "sampleRate" : 48000,
          "bitDepth" : 16,
          "numChannels" : 1,
          "integratedLUFS" : -19.7454685169303,
          "peakLevel" : 0.631999611854553,
          "metaData" : ""
        }
      ],
      "metadata" : {
        "timeAdded" : "20220817T132459.629726"
      }
    },
    {
      "id" : 50,
      "src" : "Slide 06.04.m4a",
      "rect" : [0, 0, 0, 0],
      "lastMod" : "20220905T225807",
      "loudnessNormalization" : true,
      "sourceTracks" : [
        {
          "range" : [0, 196697920],
          "type" : 2,
          "editRate" : 10000000,
          "trackRect" : [0, 0, 0, 0],
          "sampleRate" : 48000,
          "bitDepth" : 16,
          "numChannels" : 1,
          "integratedLUFS" : -19.6023966255084,
          "peakLevel" : 0.656891167163849,
          "metaData" : ""
        }
      ],
      "metadata" : {
        "timeAdded" : "20220817T132459.640727"
      }
    },
    {
      "id" : 51,
      "src" : "Slide 07.01(1).m4a",
      "rect" : [0, 0, 0, 0],
      "lastMod" : "20220905T225807",
      "loudnessNormalization" : true,
      "sourceTracks" : [
        {
          "range" : [0, 173232080],
          "type" : 2,
          "editRate" : 10000000,
          "trackRect" : [0, 0, 0, 0],
          "sampleRate" : 48000,
          "bitDepth" : 16,
          "numChannels" : 1,
          "integratedLUFS" : -20.4253198895093,
          "peakLevel" : 0.636032402515411,
          "metaData" : ""
        }
      ],
      "metadata" : {
        "timeAdded" : "20220817T132459.650727"
      }
    },
    {
      "id" : 52,
      "src" : "Slide 07.02(1).m4a",
      "rect" : [0, 0, 0, 0],
      "lastMod" : "20220905T225807",
      "loudnessNormalization" : true,
      "sourceTracks" : [
        {
          "range" : [0, 132057080],
          "type" : 2,
          "editRate" : 10000000,
          "trackRect" : [0, 0, 0, 0],
          "sampleRate" : 48000,
          "bitDepth" : 16,
          "numChannels" : 1,
          "integratedLUFS" : -19.9633930857666,
          "peakLevel" : 0.601434707641602,
          "metaData" : ""
        }
      ],
      "metadata" : {
        "timeAdded" : "20220817T132459.660727"
      }
    },
    {
      "id" : 53,
      "src" : "Slide 07.03.m4a",
      "rect" : [0, 0, 0, 0],
      "lastMod" : "20220905T225807",
      "loudnessNormalization" : true,
      "sourceTracks" : [
        {
          "range" : [0, 86190000],
          "type" : 2,
          "editRate" : 10000000,
          "trackRect" : [0, 0, 0, 0],
          "sampleRate" : 48000,
          "bitDepth" : 16,
          "numChannels" : 1,
          "integratedLUFS" : -19.965543823462,
          "peakLevel" : 0.630925416946411,
          "metaData" : ""
        }
      ],
      "metadata" : {
        "timeAdded" : "20220817T132459.673727"
      }
    },
    {
      "id" : 54,
      "src" : "Slide 08.01(1).m4a",
      "rect" : [0, 0, 0, 0],
      "lastMod" : "20220905T225807",
      "loudnessNormalization" : true,
      "sourceTracks" : [
        {
          "range" : [0, 199472496],
          "type" : 2,
          "editRate" : 10000000,
          "trackRect" : [0, 0, 0, 0],
          "sampleRate" : 48000,
          "bitDepth" : 16,
          "numChannels" : 1,
          "integratedLUFS" : -20.6533653764478,
          "peakLevel" : 0.53357195854187,
          "metaData" : ""
        }
      ],
      "metadata" : {
        "timeAdded" : "20220817T132459.685722"
      }
    },
    {
      "id" : 55,
      "src" : "Slide 08.02.m4a",
      "rect" : [0, 0, 0, 0],
      "lastMod" : "20220905T225807",
      "loudnessNormalization" : true,
      "sourceTracks" : [
        {
          "range" : [0, 185606256],
          "type" : 2,
          "editRate" : 10000000,
          "trackRect" : [0, 0, 0, 0],
          "sampleRate" : 48000,
          "bitDepth" : 16,
          "numChannels" : 1,
          "integratedLUFS" : -19.686356271704,
          "peakLevel" : 0.792901635169983,
          "metaData" : ""
        }
      ],
      "metadata" : {
        "timeAdded" : "20220817T132459.698724"
      }
    },
    {
      "id" : 56,
      "src" : "Slide 08.03.m4a",
      "rect" : [0, 0, 0, 0],
      "lastMod" : "20220905T225807",
      "loudnessNormalization" : true,
      "sourceTracks" : [
        {
          "range" : [0, 241500832],
          "type" : 2,
          "editRate" : 10000000,
          "trackRect" : [0, 0, 0, 0],
          "sampleRate" : 48000,
          "bitDepth" : 16,
          "numChannels" : 1,
          "integratedLUFS" : -20.5839228891274,
          "peakLevel" : 0.605484306812286,
          "metaData" : ""
        }
      ],
      "metadata" : {
        "timeAdded" : "20220817T132459.713722"
      }
    },
    {
      "id" : 57,
      "src" : "Slide 08.04.m4a",
      "rect" : [0, 0, 0, 0],
      "lastMod" : "20220905T225807",
      "loudnessNormalization" : true,
      "sourceTracks" : [
        {
          "range" : [0, 212485840],
          "type" : 2,
          "editRate" : 10000000,
          "trackRect" : [0, 0, 0, 0],
          "sampleRate" : 48000,
          "bitDepth" : 16,
          "numChannels" : 1,
          "integratedLUFS" : -20.2180330372802,
          "peakLevel" : 0.627403140068054,
          "metaData" : ""
        }
      ],
      "metadata" : {
        "timeAdded" : "20220817T132459.723723"
      }
    },
    {
      "id" : 58,
      "src" : "Slide 10.01(1).m4a",
      "rect" : [0, 0, 0, 0],
      "lastMod" : "20220905T225807",
      "loudnessNormalization" : true,
      "sourceTracks" : [
        {
          "range" : [0, 280116448],
          "type" : 2,
          "editRate" : 10000000,
          "trackRect" : [0, 0, 0, 0],
          "sampleRate" : 48000,
          "bitDepth" : 16,
          "numChannels" : 1,
          "integratedLUFS" : -20.362226221621,
          "peakLevel" : 0.681434273719788,
          "metaData" : ""
        }
      ],
      "metadata" : {
        "timeAdded" : "20220817T165614.160472"
      }
    },
    {
      "id" : 59,
      "src" : "Slide 10.02(1).m4a",
      "rect" : [0, 0, 0, 0],
      "lastMod" : "20220905T225807",
      "loudnessNormalization" : true,
      "sourceTracks" : [
        {
          "range" : [0, 135044992],
          "type" : 2,
          "editRate" : 10000000,
          "trackRect" : [0, 0, 0, 0],
          "sampleRate" : 48000,
          "bitDepth" : 16,
          "numChannels" : 1,
          "integratedLUFS" : -21.386421665062,
          "peakLevel" : 0.534445464611053,
          "metaData" : ""
        }
      ],
      "metadata" : {
        "timeAdded" : "20220817T165614.171471"
      }
    },
    {
      "id" : 60,
      "src" : "Slide 10.03.m4a",
      "rect" : [0, 0, 0, 0],
      "lastMod" : "20220905T225807",
      "loudnessNormalization" : true,
      "sourceTracks" : [
        {
          "range" : [0, 183046464],
          "type" : 2,
          "editRate" : 10000000,
          "trackRect" : [0, 0, 0, 0],
          "sampleRate" : 48000,
          "bitDepth" : 16,
          "numChannels" : 1,
          "integratedLUFS" : -20.608733762644,
          "peakLevel" : 0.572174251079559,
          "metaData" : ""
        }
      ],
      "metadata" : {
        "timeAdded" : "20220817T165614.182471"
      }
    },
    {
      "id" : 61,
      "src" : "Slide 10.04.m4a",
      "rect" : [0, 0, 0, 0],
      "lastMod" : "20220905T225807",
      "loudnessNormalization" : true,
      "sourceTracks" : [
        {
          "range" : [0, 353717504],
          "type" : 2,
          "editRate" : 10000000,
          "trackRect" : [0, 0, 0, 0],
          "sampleRate" : 48000,
          "bitDepth" : 16,
          "numChannels" : 1,
          "integratedLUFS" : -21.566683204816,
          "peakLevel" : 0.608080565929413,
          "metaData" : ""
        }
      ],
      "metadata" : {
        "timeAdded" : "20220817T165614.193471"
      }
    },
    {
      "id" : 62,
      "src" : "Slide 11.01(1).m4a",
      "rect" : [0, 0, 0, 0],
      "lastMod" : "20220905T225807",
      "loudnessNormalization" : true,
      "sourceTracks" : [
        {
          "range" : [0, 225714160],
          "type" : 2,
          "editRate" : 10000000,
          "trackRect" : [0, 0, 0, 0],
          "sampleRate" : 48000,
          "bitDepth" : 16,
          "numChannels" : 1,
          "integratedLUFS" : -21.6647447418184,
          "peakLevel" : 0.497421205043793,
          "metaData" : ""
        }
      ],
      "metadata" : {
        "timeAdded" : "20220817T165614.204472"
      }
    },
    {
      "id" : 63,
      "src" : "Slide 11.02.m4a",
      "rect" : [0, 0, 0, 0],
      "lastMod" : "20220905T225807",
      "loudnessNormalization" : true,
      "sourceTracks" : [
        {
          "range" : [0, 222300832],
          "type" : 2,
          "editRate" : 10000000,
          "trackRect" : [0, 0, 0, 0],
          "sampleRate" : 48000,
          "bitDepth" : 16,
          "numChannels" : 1,
          "integratedLUFS" : -20.3462014665791,
          "peakLevel" : 0.683168649673462,
          "metaData" : ""
        }
      ],
      "metadata" : {
        "timeAdded" : "20220817T165614.217695"
      }
    },
    {
      "id" : 64,
      "src" : "Slide 11.03.m4a",
      "rect" : [0, 0, 0, 0],
      "lastMod" : "20220905T225807",
      "loudnessNormalization" : true,
      "sourceTracks" : [
        {
          "range" : [0, 231480208],
          "type" : 2,
          "editRate" : 10000000,
          "trackRect" : [0, 0, 0, 0],
          "sampleRate" : 48000,
          "bitDepth" : 16,
          "numChannels" : 1,
          "integratedLUFS" : -20.6704974991554,
          "peakLevel" : 0.571188509464264,
          "metaData" : ""
        }
      ],
      "metadata" : {
        "timeAdded" : "20220817T165614.228694"
      }
    },
    {
      "id" : 65,
      "src" : "Slide 11.04.m4a",
      "rect" : [0, 0, 0, 0],
      "lastMod" : "20220905T225807",
      "loudnessNormalization" : true,
      "sourceTracks" : [
        {
          "range" : [0, 162778544],
          "type" : 2,
          "editRate" : 10000000,
          "trackRect" : [0, 0, 0, 0],
          "sampleRate" : 48000,
          "bitDepth" : 16,
          "numChannels" : 1,
          "integratedLUFS" : -19.7902868508584,
          "peakLevel" : 0.737909436225891,
          "metaData" : ""
        }
      ],
      "metadata" : {
        "timeAdded" : "20220817T165614.240692"
      }
    },
    {
      "id" : 66,
      "src" : "Slide 12.01(1).m4a",
      "rect" : [0, 0, 0, 0],
      "lastMod" : "20220905T225807",
      "loudnessNormalization" : true,
      "sourceTracks" : [
        {
          "range" : [0, 210566880],
          "type" : 2,
          "editRate" : 10000000,
          "trackRect" : [0, 0, 0, 0],
          "sampleRate" : 48000,
          "bitDepth" : 16,
          "numChannels" : 1,
          "integratedLUFS" : -19.0345223722415,
          "peakLevel" : 0.768230199813843,
          "metaData" : ""
        }
      ],
      "metadata" : {
        "timeAdded" : "20220817T165614.252692"
      }
    },
    {
      "id" : 67,
      "src" : "Slide 16.02(1).m4a",
      "rect" : [0, 0, 0, 0],
      "lastMod" : "20220905T225808",
      "loudnessNormalization" : true,
      "sourceTracks" : [
        {
          "range" : [0, 309983744],
          "type" : 2,
          "editRate" : 10000000,
          "trackRect" : [0, 0, 0, 0],
          "sampleRate" : 48000,
          "bitDepth" : 16,
          "numChannels" : 1,
          "integratedLUFS" : -19.1831059888508,
          "peakLevel" : 0.692796528339386,
          "metaData" : ""
        }
      ],
      "metadata" : {
        "timeAdded" : "20220817T171556.796835"
      }
    },
    {
      "id" : 68,
      "src" : "01-Beyond Decentralized Technology Overview v2-Beyond Decentralized.png",
      "rect" : [0, 0, 1920, 1080],
      "lastMod" : "20220919T015844",
      "loudnessNormalization" : true,
      "sourceTracks" : [
        {
          "range" : [0, 1],
          "type" : 1,
          "editRate" : 10000000,
          "trackRect" : [0, 0, 1920, 1080],
          "sampleRate" : 0,
          "bitDepth" : 24,
          "numChannels" : 0,
          "integratedLUFS" : 100.0,
          "peakLevel" : -1.0,
          "metaData" : ""
        }
      ],
      "metadata" : {
        "timeAdded" : "20220919T015849.405477"
      }
    },
    {
      "id" : 69,
      "src" : "02-Beyond Decentralized Technology Overview v2-Mission.png",
      "rect" : [0, 0, 1920, 1080],
      "lastMod" : "20220919T015844",
      "loudnessNormalization" : true,
      "sourceTracks" : [
        {
          "range" : [0, 1],
          "type" : 1,
          "editRate" : 10000000,
          "trackRect" : [0, 0, 1920, 1080],
          "sampleRate" : 0,
          "bitDepth" : 8,
          "numChannels" : 0,
          "integratedLUFS" : 100.0,
          "peakLevel" : -1.0,
          "metaData" : ""
        }
      ],
      "metadata" : {
        "timeAdded" : "20220919T015849.424426"
      }
    },
    {
      "id" : 70,
      "src" : "03-Beyond Decentralized Technology Overview v2-The Story.png",
      "rect" : [0, 0, 1920, 1080],
      "lastMod" : "20220919T015844",
      "loudnessNormalization" : true,
      "sourceTracks" : [
        {
          "range" : [0, 1],
          "type" : 1,
          "editRate" : 10000000,
          "trackRect" : [0, 0, 1920, 1080],
          "sampleRate" : 0,
          "bitDepth" : 8,
          "numChannels" : 0,
          "integratedLUFS" : 100.0,
          "peakLevel" : -1.0,
          "metaData" : ""
        }
      ],
      "metadata" : {
        "timeAdded" : "20220919T015849.436393"
      }
    },
    {
      "id" : 71,
      "src" : "04-Beyond Decentralized Technology Overview v2.png",
      "rect" : [0, 0, 1920, 1080],
      "lastMod" : "20220919T015844",
      "loudnessNormalization" : true,
      "sourceTracks" : [
        {
          "range" : [0, 1],
          "type" : 1,
          "editRate" : 10000000,
          "trackRect" : [0, 0, 1920, 1080],
          "sampleRate" : 0,
          "bitDepth" : 8,
          "numChannels" : 0,
          "integratedLUFS" : 100.0,
          "peakLevel" : -1.0,
          "metaData" : ""
        }
      ],
      "metadata" : {
        "timeAdded" : "20220919T015849.447363"
      }
    },
    {
      "id" : 72,
      "src" : "05-Beyond Decentralized Technology Overview v2.png",
      "rect" : [0, 0, 1920, 1080],
      "lastMod" : "20220919T015844",
      "loudnessNormalization" : true,
      "sourceTracks" : [
        {
          "range" : [0, 1],
          "type" : 1,
          "editRate" : 10000000,
          "trackRect" : [0, 0, 1920, 1080],
          "sampleRate" : 0,
          "bitDepth" : 8,
          "numChannels" : 0,
          "integratedLUFS" : 100.0,
          "peakLevel" : -1.0,
          "metaData" : ""
        }
      ],
      "metadata" : {
        "timeAdded" : "20220919T015849.465316"
      }
    },
    {
      "id" : 73,
      "src" : "06-Beyond Decentralized Technology Overview v2.png",
      "rect" : [0, 0, 1920, 1080],
      "lastMod" : "20220919T015844",
      "loudnessNormalization" : true,
      "sourceTracks" : [
        {
          "range" : [0, 1],
          "type" : 1,
          "editRate" : 10000000,
          "trackRect" : [0, 0, 1920, 1080],
          "sampleRate" : 0,
          "bitDepth" : 24,
          "numChannels" : 0,
          "integratedLUFS" : 100.0,
          "peakLevel" : -1.0,
          "metaData" : ""
        }
      ],
      "metadata" : {
        "timeAdded" : "20220919T015849.483267"
      }
    },
    {
      "id" : 74,
      "src" : "07-Beyond Decentralized Technology Overview v2.png",
      "rect" : [0, 0, 1920, 1080],
      "lastMod" : "20220919T015845",
      "loudnessNormalization" : true,
      "sourceTracks" : [
        {
          "range" : [0, 1],
          "type" : 1,
          "editRate" : 10000000,
          "trackRect" : [0, 0, 1920, 1080],
          "sampleRate" : 0,
          "bitDepth" : 8,
          "numChannels" : 0,
          "integratedLUFS" : 100.0,
          "peakLevel" : -1.0,
          "metaData" : ""
        }
      ],
      "metadata" : {
        "timeAdded" : "20220919T015849.495236"
      }
    },
    {
      "id" : 75,
      "src" : "08-Beyond Decentralized Technology Overview v2.png",
      "rect" : [0, 0, 1920, 1080],
      "lastMod" : "20220919T015845",
      "loudnessNormalization" : true,
      "sourceTracks" : [
        {
          "range" : [0, 1],
          "type" : 1,
          "editRate" : 10000000,
          "trackRect" : [0, 0, 1920, 1080],
          "sampleRate" : 0,
          "bitDepth" : 8,
          "numChannels" : 0,
          "integratedLUFS" : 100.0,
          "peakLevel" : -1.0,
          "metaData" : ""
        }
      ],
      "metadata" : {
        "timeAdded" : "20220919T015849.507205"
      }
    },
    {
      "id" : 76,
      "src" : "09-Beyond Decentralized Technology Overview v2.png",
      "rect" : [0, 0, 1920, 1080],
      "lastMod" : "20220919T015845",
      "loudnessNormalization" : true,
      "sourceTracks" : [
        {
          "range" : [0, 1],
          "type" : 1,
          "editRate" : 10000000,
          "trackRect" : [0, 0, 1920, 1080],
          "sampleRate" : 0,
          "bitDepth" : 8,
          "numChannels" : 0,
          "integratedLUFS" : 100.0,
          "peakLevel" : -1.0,
          "metaData" : ""
        }
      ],
      "metadata" : {
        "timeAdded" : "20220919T015849.519173"
      }
    },
    {
      "id" : 77,
      "src" : "10-Beyond Decentralized Technology Overview v2.png",
      "rect" : [0, 0, 1920, 1080],
      "lastMod" : "20220919T015845",
      "loudnessNormalization" : true,
      "sourceTracks" : [
        {
          "range" : [0, 1],
          "type" : 1,
          "editRate" : 10000000,
          "trackRect" : [0, 0, 1920, 1080],
          "sampleRate" : 0,
          "bitDepth" : 8,
          "numChannels" : 0,
          "integratedLUFS" : 100.0,
          "peakLevel" : -1.0,
          "metaData" : ""
        }
      ],
      "metadata" : {
        "timeAdded" : "20220919T015849.531141"
      }
    },
    {
      "id" : 78,
      "src" : "11-Beyond Decentralized Technology Overview v2.png",
      "rect" : [0, 0, 1920, 1080],
      "lastMod" : "20220919T015845",
      "loudnessNormalization" : true,
      "sourceTracks" : [
        {
          "range" : [0, 1],
          "type" : 1,
          "editRate" : 10000000,
          "trackRect" : [0, 0, 1920, 1080],
          "sampleRate" : 0,
          "bitDepth" : 24,
          "numChannels" : 0,
          "integratedLUFS" : 100.0,
          "peakLevel" : -1.0,
          "metaData" : ""
        }
      ],
      "metadata" : {
        "timeAdded" : "20220919T015849.545103"
      }
    },
    {
      "id" : 79,
      "src" : "12-Beyond Decentralized Technology Overview v2.png",
      "rect" : [0, 0, 1920, 1080],
      "lastMod" : "20220919T015845",
      "loudnessNormalization" : true,
      "sourceTracks" : [
        {
          "range" : [0, 1],
          "type" : 1,
          "editRate" : 10000000,
          "trackRect" : [0, 0, 1920, 1080],
          "sampleRate" : 0,
          "bitDepth" : 8,
          "numChannels" : 0,
          "integratedLUFS" : 100.0,
          "peakLevel" : -1.0,
          "metaData" : ""
        }
      ],
      "metadata" : {
        "timeAdded" : "20220919T015849.573028"
      }
    },
    {
      "id" : 80,
      "src" : "13-Beyond Decentralized Technology Overview v2.png",
      "rect" : [0, 0, 1920, 1080],
      "lastMod" : "20220919T015846",
      "loudnessNormalization" : true,
      "sourceTracks" : [
        {
          "range" : [0, 1],
          "type" : 1,
          "editRate" : 10000000,
          "trackRect" : [0, 0, 1920, 1080],
          "sampleRate" : 0,
          "bitDepth" : 8,
          "numChannels" : 0,
          "integratedLUFS" : 100.0,
          "peakLevel" : -1.0,
          "metaData" : ""
        }
      ],
      "metadata" : {
        "timeAdded" : "20220919T015849.592974"
      }
    },
    {
      "id" : 81,
      "src" : "14-Beyond Decentralized Technology Overview v2.png",
      "rect" : [0, 0, 1920, 1080],
      "lastMod" : "20220919T015846",
      "loudnessNormalization" : true,
      "sourceTracks" : [
        {
          "range" : [0, 1],
          "type" : 1,
          "editRate" : 10000000,
          "trackRect" : [0, 0, 1920, 1080],
          "sampleRate" : 0,
          "bitDepth" : 24,
          "numChannels" : 0,
          "integratedLUFS" : 100.0,
          "peakLevel" : -1.0,
          "metaData" : ""
        }
      ],
      "metadata" : {
        "timeAdded" : "20220919T015849.612921"
      }
    },
    {
      "id" : 82,
      "src" : "15-Beyond Decentralized Technology Overview v2.png",
      "rect" : [0, 0, 1920, 1080],
      "lastMod" : "20220919T015846",
      "loudnessNormalization" : true,
      "sourceTracks" : [
        {
          "range" : [0, 1],
          "type" : 1,
          "editRate" : 10000000,
          "trackRect" : [0, 0, 1920, 1080],
          "sampleRate" : 0,
          "bitDepth" : 8,
          "numChannels" : 0,
          "integratedLUFS" : 100.0,
          "peakLevel" : -1.0,
          "metaData" : ""
        }
      ],
      "metadata" : {
        "timeAdded" : "20220919T015849.630873"
      }
    },
    {
      "id" : 83,
      "src" : "16-Beyond Decentralized Technology Overview v2.png",
      "rect" : [0, 0, 1920, 1080],
      "lastMod" : "20220919T015846",
      "loudnessNormalization" : true,
      "sourceTracks" : [
        {
          "range" : [0, 1],
          "type" : 1,
          "editRate" : 10000000,
          "trackRect" : [0, 0, 1920, 1080],
          "sampleRate" : 0,
          "bitDepth" : 24,
          "numChannels" : 0,
          "integratedLUFS" : 100.0,
          "peakLevel" : -1.0,
          "metaData" : ""
        }
      ],
      "metadata" : {
        "timeAdded" : "20220919T015849.655806"
      }
    },
    {
      "id" : 84,
      "src" : "17-Beyond Decentralized Technology Overview v2.png",
      "rect" : [0, 0, 1920, 1080],
      "lastMod" : "20220919T015846",
      "loudnessNormalization" : true,
      "sourceTracks" : [
        {
          "range" : [0, 1],
          "type" : 1,
          "editRate" : 10000000,
          "trackRect" : [0, 0, 1920, 1080],
          "sampleRate" : 0,
          "bitDepth" : 8,
          "numChannels" : 0,
          "integratedLUFS" : 100.0,
          "peakLevel" : -1.0,
          "metaData" : ""
        }
      ],
      "metadata" : {
        "timeAdded" : "20220919T015849.673758"
      }
    },
    {
      "id" : 85,
      "src" : "18-Beyond Decentralized Technology Overview v2.png",
      "rect" : [0, 0, 1920, 1080],
      "lastMod" : "20220919T015846",
      "loudnessNormalization" : true,
      "sourceTracks" : [
        {
          "range" : [0, 1],
          "type" : 1,
          "editRate" : 10000000,
          "trackRect" : [0, 0, 1920, 1080],
          "sampleRate" : 0,
          "bitDepth" : 24,
          "numChannels" : 0,
          "integratedLUFS" : 100.0,
          "peakLevel" : -1.0,
          "metaData" : ""
        }
      ],
      "metadata" : {
        "timeAdded" : "20220919T015849.689717"
      }
    },
    {
      "id" : 86,
      "src" : "19-Beyond Decentralized Technology Overview v2.png",
      "rect" : [0, 0, 1920, 1080],
      "lastMod" : "20220919T015846",
      "loudnessNormalization" : true,
      "sourceTracks" : [
        {
          "range" : [0, 1],
          "type" : 1,
          "editRate" : 10000000,
          "trackRect" : [0, 0, 1920, 1080],
          "sampleRate" : 0,
          "bitDepth" : 8,
          "numChannels" : 0,
          "integratedLUFS" : 100.0,
          "peakLevel" : -1.0,
          "metaData" : ""
        }
      ],
      "metadata" : {
        "timeAdded" : "20220919T015849.710659"
      }
    },
    {
      "id" : 87,
      "src" : "20-Beyond Decentralized Technology Overview v2.png",
      "rect" : [0, 0, 1920, 1080],
      "lastMod" : "20220919T015846",
      "loudnessNormalization" : true,
      "sourceTracks" : [
        {
          "range" : [0, 1],
          "type" : 1,
          "editRate" : 10000000,
          "trackRect" : [0, 0, 1920, 1080],
          "sampleRate" : 0,
          "bitDepth" : 24,
          "numChannels" : 0,
          "integratedLUFS" : 100.0,
          "peakLevel" : -1.0,
          "metaData" : ""
        }
      ],
      "metadata" : {
        "timeAdded" : "20220919T015849.732601"
      }
    },
    {
      "id" : 88,
      "src" : "21-Beyond Decentralized Technology Overview v2.png",
      "rect" : [0, 0, 1920, 1080],
      "lastMod" : "20220919T015847",
      "loudnessNormalization" : true,
      "sourceTracks" : [
        {
          "range" : [0, 1],
          "type" : 1,
          "editRate" : 10000000,
          "trackRect" : [0, 0, 1920, 1080],
          "sampleRate" : 0,
          "bitDepth" : 8,
          "numChannels" : 0,
          "integratedLUFS" : 100.0,
          "peakLevel" : -1.0,
          "metaData" : ""
        }
      ],
      "metadata" : {
        "timeAdded" : "20220919T015849.757536"
      }
    },
    {
      "id" : 89,
      "src" : "22-Beyond Decentralized Technology Overview v2.png",
      "rect" : [0, 0, 1920, 1080],
      "lastMod" : "20220919T015847",
      "loudnessNormalization" : true,
      "sourceTracks" : [
        {
          "range" : [0, 1],
          "type" : 1,
          "editRate" : 10000000,
          "trackRect" : [0, 0, 1920, 1080],
          "sampleRate" : 0,
          "bitDepth" : 24,
          "numChannels" : 0,
          "integratedLUFS" : 100.0,
          "peakLevel" : -1.0,
          "metaData" : ""
        }
      ],
      "metadata" : {
        "timeAdded" : "20220919T015849.773492"
      }
    },
    {
      "id" : 90,
      "src" : "23-Beyond Decentralized Technology Overview v2.png",
      "rect" : [0, 0, 1920, 1080],
      "lastMod" : "20220919T015847",
      "loudnessNormalization" : true,
      "sourceTracks" : [
        {
          "range" : [0, 1],
          "type" : 1,
          "editRate" : 10000000,
          "trackRect" : [0, 0, 1920, 1080],
          "sampleRate" : 0,
          "bitDepth" : 8,
          "numChannels" : 0,
          "integratedLUFS" : 100.0,
          "peakLevel" : -1.0,
          "metaData" : ""
        }
      ],
      "metadata" : {
        "timeAdded" : "20220919T015849.790447"
      }
    },
    {
      "id" : 91,
      "src" : "24-Beyond Decentralized Technology Overview v2.png",
      "rect" : [0, 0, 1920, 1080],
      "lastMod" : "20220919T015847",
      "loudnessNormalization" : true,
      "sourceTracks" : [
        {
          "range" : [0, 1],
          "type" : 1,
          "editRate" : 10000000,
          "trackRect" : [0, 0, 1920, 1080],
          "sampleRate" : 0,
          "bitDepth" : 8,
          "numChannels" : 0,
          "integratedLUFS" : 100.0,
          "peakLevel" : -1.0,
          "metaData" : ""
        }
      ],
      "metadata" : {
        "timeAdded" : "20220919T015849.806404"
      }
    },
    {
      "id" : 92,
      "src" : "25-Beyond Decentralized Technology Overview v2.png",
      "rect" : [0, 0, 1920, 1080],
      "lastMod" : "20220919T015847",
      "loudnessNormalization" : true,
      "sourceTracks" : [
        {
          "range" : [0, 1],
          "type" : 1,
          "editRate" : 10000000,
          "trackRect" : [0, 0, 1920, 1080],
          "sampleRate" : 0,
          "bitDepth" : 8,
          "numChannels" : 0,
          "integratedLUFS" : 100.0,
          "peakLevel" : -1.0,
          "metaData" : ""
        }
      ],
      "metadata" : {
        "timeAdded" : "20220919T015849.820368"
      }
    },
    {
      "id" : 93,
      "src" : "26-Beyond Decentralized Technology Overview v2-Validation.png",
      "rect" : [0, 0, 1920, 1080],
      "lastMod" : "20220919T015847",
      "loudnessNormalization" : true,
      "sourceTracks" : [
        {
          "range" : [0, 1],
          "type" : 1,
          "editRate" : 10000000,
          "trackRect" : [0, 0, 1920, 1080],
          "sampleRate" : 0,
          "bitDepth" : 8,
          "numChannels" : 0,
          "integratedLUFS" : 100.0,
          "peakLevel" : -1.0,
          "metaData" : ""
        }
      ],
      "metadata" : {
        "timeAdded" : "20220919T015849.841312"
      }
    },
    {
      "id" : 94,
      "src" : "27-Beyond Decentralized Technology Overview v2.png",
      "rect" : [0, 0, 1920, 1080],
      "lastMod" : "20220919T015848",
      "loudnessNormalization" : true,
      "sourceTracks" : [
        {
          "range" : [0, 1],
          "type" : 1,
          "editRate" : 10000000,
          "trackRect" : [0, 0, 1920, 1080],
          "sampleRate" : 0,
          "bitDepth" : 24,
          "numChannels" : 0,
          "integratedLUFS" : 100.0,
          "peakLevel" : -1.0,
          "metaData" : ""
        }
      ],
      "metadata" : {
        "timeAdded" : "20220919T015849.856270"
      }
    },
    {
      "id" : 95,
      "src" : "28-Beyond Decentralized Technology Overview v2.png",
      "rect" : [0, 0, 1920, 1080],
      "lastMod" : "20220919T015848",
      "loudnessNormalization" : true,
      "sourceTracks" : [
        {
          "range" : [0, 1],
          "type" : 1,
          "editRate" : 10000000,
          "trackRect" : [0, 0, 1920, 1080],
          "sampleRate" : 0,
          "bitDepth" : 8,
          "numChannels" : 0,
          "integratedLUFS" : 100.0,
          "peakLevel" : -1.0,
          "metaData" : ""
        }
      ],
      "metadata" : {
        "timeAdded" : "20220919T015849.870235"
      }
    },
    {
      "id" : 96,
      "src" : "29-Beyond Decentralized Technology Overview v2.png",
      "rect" : [0, 0, 1920, 1080],
      "lastMod" : "20220919T015848",
      "loudnessNormalization" : true,
      "sourceTracks" : [
        {
          "range" : [0, 1],
          "type" : 1,
          "editRate" : 10000000,
          "trackRect" : [0, 0, 1920, 1080],
          "sampleRate" : 0,
          "bitDepth" : 8,
          "numChannels" : 0,
          "integratedLUFS" : 100.0,
          "peakLevel" : -1.0,
          "metaData" : ""
        }
      ],
      "metadata" : {
        "timeAdded" : "20220919T015849.894169"
      }
    },
    {
      "id" : 97,
      "src" : "30-Beyond Decentralized Technology Overview v2.png",
      "rect" : [0, 0, 1920, 1080],
      "lastMod" : "20220919T015848",
      "loudnessNormalization" : true,
      "sourceTracks" : [
        {
          "range" : [0, 1],
          "type" : 1,
          "editRate" : 10000000,
          "trackRect" : [0, 0, 1920, 1080],
          "sampleRate" : 0,
          "bitDepth" : 8,
          "numChannels" : 0,
          "integratedLUFS" : 100.0,
          "peakLevel" : -1.0,
          "metaData" : ""
        }
      ],
      "metadata" : {
        "timeAdded" : "20220919T015849.917108"
      }
    },
    {
      "id" : 98,
      "src" : "31-Beyond Decentralized Technology Overview v2.png",
      "rect" : [0, 0, 1920, 1080],
      "lastMod" : "20220919T015848",
      "loudnessNormalization" : true,
      "sourceTracks" : [
        {
          "range" : [0, 1],
          "type" : 1,
          "editRate" : 10000000,
          "trackRect" : [0, 0, 1920, 1080],
          "sampleRate" : 0,
          "bitDepth" : 8,
          "numChannels" : 0,
          "integratedLUFS" : 100.0,
          "peakLevel" : -1.0,
          "metaData" : ""
        }
      ],
      "metadata" : {
        "timeAdded" : "20220919T015849.938052"
      }
    },
    {
      "id" : 99,
      "src" : "32-Beyond Decentralized Technology Overview v2.png",
      "rect" : [0, 0, 1920, 1080],
      "lastMod" : "20220919T015848",
      "loudnessNormalization" : true,
      "sourceTracks" : [
        {
          "range" : [0, 1],
          "type" : 1,
          "editRate" : 10000000,
          "trackRect" : [0, 0, 1920, 1080],
          "sampleRate" : 0,
          "bitDepth" : 8,
          "numChannels" : 0,
          "integratedLUFS" : 100.0,
          "peakLevel" : -1.0,
          "metaData" : ""
        }
      ],
      "metadata" : {
        "timeAdded" : "20220919T015849.952014"
      }
    },
    {
      "id" : 100,
      "src" : "33-Beyond Decentralized Technology Overview v2.png",
      "rect" : [0, 0, 1920, 1080],
      "lastMod" : "20220919T015849",
      "loudnessNormalization" : true,
      "sourceTracks" : [
        {
          "range" : [0, 1],
          "type" : 1,
          "editRate" : 10000000,
          "trackRect" : [0, 0, 1920, 1080],
          "sampleRate" : 0,
          "bitDepth" : 8,
          "numChannels" : 0,
          "integratedLUFS" : 100.0,
          "peakLevel" : -1.0,
          "metaData" : ""
        }
      ],
      "metadata" : {
        "timeAdded" : "20220919T015849.969966"
      }
    }
  ],
  "timeline" : {
    "id" : 101,
    "sceneTrack" : {
      "scenes" : [
        {
          "csml" : {
            "tracks" : [
              {
                "trackIndex" : 0,
                "medias" : [
                  {
                    "id" : 102,
                    "_type" : "AMFile",
                    "src" : 1,
                    "trackNumber" : 0,
                    "attributes" : {
                      "ident" : "Slide 01.01",
                      "gain" : 1.0,
                      "mixToMono" : false,
                      "loudnessNormalization" : true
                    },
                      "channelNumber" : "0",
                    "effects" : [

                    ],
                    "start" : 105,
                    "duration" : 318,
                    "mediaStart" : 0,
                    "mediaDuration" : 318,
                    "scalar" : 1,
                    "metadata" : {
                      "clipSpeedAttribute" : false
                    },
                    "animationTracks" : {

                    }
                  },
                  {
                    "id" : 103,
                    "_type" : "AMFile",
                    "src" : 2,
                    "trackNumber" : 0,
                    "attributes" : {
                      "ident" : "Slide 01.02",
                      "gain" : 1.0,
                      "mixToMono" : false,
                      "loudnessNormalization" : true
                    },
                      "channelNumber" : "0",
                    "parameters" : {
                      "volume" : 0.989010989010986
                    },
                    "effects" : [

                    ],
                    "start" : 465,
                    "duration" : 240,
                    "mediaStart" : 0,
                    "mediaDuration" : 240,
                    "scalar" : 1,
                    "metadata" : {
                      "clipSpeedAttribute" : false
                    },
                    "animationTracks" : {

                    }
                  },
                  {
                    "id" : 104,
                    "_type" : "AMFile",
                    "src" : 3,
                    "trackNumber" : 0,
                    "attributes" : {
                      "ident" : "Slide 02.01",
                      "gain" : 1.0,
                      "mixToMono" : false,
                      "loudnessNormalization" : true
                    },
                      "channelNumber" : "0",
                    "effects" : [

                    ],
                    "start" : 909,
                    "duration" : 261,
                    "mediaStart" : 0,
                    "mediaDuration" : 261,
                    "scalar" : 1,
                    "metadata" : {
                      "clipSpeedAttribute" : false
                    },
                    "animationTracks" : {

                    }
                  },
                  {
                    "id" : 105,
                    "_type" : "AMFile",
                    "src" : 4,
                    "trackNumber" : 0,
                    "attributes" : {
                      "ident" : "Slide 02.02",
                      "gain" : 1.0,
                      "mixToMono" : false,
                      "loudnessNormalization" : true
                    },
                      "channelNumber" : "0",
                    "effects" : [

                    ],
                    "start" : 1235,
                    "duration" : 573,
                    "mediaStart" : 0,
                    "mediaDuration" : 573,
                    "scalar" : 1,
                    "metadata" : {
                      "clipSpeedAttribute" : false
                    },
                    "animationTracks" : {

                    }
                  },
                  {
                    "id" : 106,
                    "_type" : "AMFile",
                    "src" : 5,
                    "trackNumber" : 0,
                    "attributes" : {
                      "ident" : "Slide 02.03",
                      "gain" : 1.0,
                      "mixToMono" : false,
                      "loudnessNormalization" : true
                    },
                      "channelNumber" : "0",
                    "parameters" : {
                      "volume" : 0.961538461538462
                    },
                    "effects" : [

                    ],
                    "start" : 1872,
                    "duration" : 311,
                    "mediaStart" : 0,
                    "mediaDuration" : 311,
                    "scalar" : 1,
                    "metadata" : {
                      "clipSpeedAttribute" : false
                    },
                    "animationTracks" : {

                    }
                  },
                  {
                    "id" : 107,
                    "_type" : "AMFile",
                    "src" : 6,
                    "trackNumber" : 0,
                    "attributes" : {
                      "ident" : "Slide 03",
                      "gain" : 1.0,
                      "mixToMono" : false,
                      "loudnessNormalization" : true
                    },
                      "channelNumber" : "0",
                    "effects" : [

                    ],
                    "start" : 2333,
                    "duration" : 852,
                    "mediaStart" : 0,
                    "mediaDuration" : 852,
                    "scalar" : 1,
                    "metadata" : {
                      "clipSpeedAttribute" : false
                    },
                    "animationTracks" : {

                    }
                  },
                  {
                    "id" : 108,
                    "_type" : "AMFile",
                    "src" : 7,
                    "trackNumber" : 0,
                    "attributes" : {
                      "ident" : "Slide 04.01",
                      "gain" : 1.0,
                      "mixToMono" : false,
                      "loudnessNormalization" : true
                    },
                      "channelNumber" : "0",
                    "effects" : [

                    ],
                    "start" : 3370,
                    "duration" : 432,
                    "mediaStart" : 0,
                    "mediaDuration" : 432,
                    "scalar" : 1,
                    "metadata" : {
                      "clipSpeedAttribute" : false
                    },
                    "animationTracks" : {

                    }
                  },
                  {
                    "id" : 109,
                    "_type" : "AMFile",
                    "src" : 8,
                    "trackNumber" : 0,
                    "attributes" : {
                      "ident" : "Slide 04.02",
                      "gain" : 1.0,
                      "mixToMono" : false,
                      "loudnessNormalization" : true
                    },
                      "channelNumber" : "0",
                    "effects" : [

                    ],
                    "start" : 3925,
                    "duration" : 513,
                    "mediaStart" : 0,
                    "mediaDuration" : 513,
                    "scalar" : 1,
                    "metadata" : {
                      "clipSpeedAttribute" : false
                    },
                    "animationTracks" : {

                    }
                  },
                  {
                    "id" : 110,
                    "_type" : "AMFile",
                    "src" : 9,
                    "trackNumber" : 0,
                    "attributes" : {
                      "ident" : "Slide 04.03",
                      "gain" : 1.0,
                      "mixToMono" : false,
                      "loudnessNormalization" : true
                    },
                      "channelNumber" : "0",
                    "effects" : [

                    ],
                    "start" : 4595,
                    "duration" : 335,
                    "mediaStart" : 0,
                    "mediaDuration" : 335,
                    "scalar" : 1,
                    "metadata" : {
                      "clipSpeedAttribute" : false
                    },
                    "animationTracks" : {

                    }
                  },
                  {
                    "id" : 111,
                    "_type" : "AMFile",
                    "src" : 10,
                    "trackNumber" : 0,
                    "attributes" : {
                      "ident" : "Slide 05.01",
                      "gain" : 1.0,
                      "mixToMono" : false,
                      "loudnessNormalization" : true
                    },
                      "channelNumber" : "0",
                    "effects" : [

                    ],
                    "start" : 5513,
                    "duration" : 657,
                    "mediaStart" : 0,
                    "mediaDuration" : 657,
                    "scalar" : 1,
                    "metadata" : {
                      "clipSpeedAttribute" : false
                    },
                    "animationTracks" : {

                    }
                  },
                  {
                    "id" : 112,
                    "_type" : "AMFile",
                    "src" : 11,
                    "trackNumber" : 0,
                    "attributes" : {
                      "ident" : "Slide 05.02",
                      "gain" : 1.0,
                      "mixToMono" : false,
                      "loudnessNormalization" : true
                    },
                      "channelNumber" : "0",
                    "effects" : [

                    ],
                    "start" : 6354,
                    "duration" : 785,
                    "mediaStart" : 0,
                    "mediaDuration" : 785,
                    "scalar" : 1,
                    "metadata" : {
                      "clipSpeedAttribute" : false
                    },
                    "animationTracks" : {

                    }
                  },
                  {
                    "id" : 113,
                    "_type" : "AMFile",
                    "src" : 47,
                    "trackNumber" : 0,
                    "attributes" : {
                      "ident" : "Slide 06.01",
                      "gain" : 1.0,
                      "mixToMono" : false,
                      "loudnessNormalization" : true
                    },
                      "channelNumber" : "0",
                    "effects" : [

                    ],
                    "start" : 7443,
                    "duration" : 615,
                    "mediaStart" : 0,
                    "mediaDuration" : 615,
                    "scalar" : 1,
                    "metadata" : {
                      "clipSpeedAttribute" : false
                    },
                    "animationTracks" : {

                    }
                  },
                  {
                    "id" : 114,
                    "_type" : "AMFile",
                    "src" : 48,
                    "trackNumber" : 0,
                    "attributes" : {
                      "ident" : "Slide 06.02",
                      "gain" : 1.0,
                      "mixToMono" : false,
                      "loudnessNormalization" : true
                    },
                      "channelNumber" : "0",
                    "effects" : [

                    ],
                    "start" : 8249,
                    "duration" : 270,
                    "mediaStart" : 0,
                    "mediaDuration" : 270,
                    "scalar" : 1,
                    "metadata" : {
                      "clipSpeedAttribute" : false
                    },
                    "animationTracks" : {

                    }
                  },
                  {
                    "id" : 115,
                    "_type" : "AMFile",
                    "src" : 49,
                    "trackNumber" : 0,
                    "attributes" : {
                      "ident" : "Slide 06.03",
                      "gain" : 1.0,
                      "mixToMono" : false,
                      "loudnessNormalization" : true
                    },
                      "channelNumber" : "0",
                    "effects" : [

                    ],
                    "start" : 8615,
                    "duration" : 378,
                    "mediaStart" : 0,
                    "mediaDuration" : 378,
                    "scalar" : 1,
                    "metadata" : {
                      "clipSpeedAttribute" : false
                    },
                    "animationTracks" : {

                    }
                  },
                  {
                    "id" : 116,
                    "_type" : "AMFile",
                    "src" : 50,
                    "trackNumber" : 0,
                    "attributes" : {
                      "ident" : "Slide 06.04",
                      "gain" : 1.0,
                      "mixToMono" : false,
                      "loudnessNormalization" : true
                    },
                      "channelNumber" : "0",
                    "effects" : [

                    ],
                    "start" : 9111,
                    "duration" : 590,
                    "mediaStart" : 0,
                    "mediaDuration" : 590,
                    "scalar" : 1,
                    "metadata" : {
                      "clipSpeedAttribute" : false
                    },
                    "animationTracks" : {

                    }
                  },
                  {
                    "id" : 117,
                    "_type" : "AMFile",
                    "src" : 51,
                    "trackNumber" : 0,
                    "attributes" : {
                      "ident" : "Slide 07.01",
                      "gain" : 1.0,
                      "mixToMono" : false,
                      "loudnessNormalization" : true
                    },
                      "channelNumber" : "0",
                    "effects" : [

                    ],
                    "start" : 9903,
                    "duration" : 519,
                    "mediaStart" : 0,
                    "mediaDuration" : 519,
                    "scalar" : 1,
                    "metadata" : {
                      "clipSpeedAttribute" : false
                    },
                    "animationTracks" : {

                    }
                  },
                  {
                    "id" : 118,
                    "_type" : "AMFile",
                    "src" : 52,
                    "trackNumber" : 0,
                    "attributes" : {
                      "ident" : "Slide 07.02",
                      "gain" : 1.0,
                      "mixToMono" : false,
                      "loudnessNormalization" : true
                    },
                      "channelNumber" : "0",
                    "effects" : [

                    ],
                    "start" : 10565,
                    "duration" : 396,
                    "mediaStart" : 0,
                    "mediaDuration" : 396,
                    "scalar" : 1,
                    "metadata" : {
                      "clipSpeedAttribute" : false
                    },
                    "animationTracks" : {

                    }
                  },
                  {
                    "id" : 119,
                    "_type" : "AMFile",
                    "src" : 53,
                    "trackNumber" : 0,
                    "attributes" : {
                      "ident" : "Slide 07.03",
                      "gain" : 1.0,
                      "mixToMono" : false,
                      "loudnessNormalization" : true
                    },
                      "channelNumber" : "0",
                    "effects" : [

                    ],
                    "start" : 11119,
                    "duration" : 258,
                    "mediaStart" : 0,
                    "mediaDuration" : 258,
                    "scalar" : 1,
                    "metadata" : {
                      "clipSpeedAttribute" : false
                    },
                    "animationTracks" : {

                    }
                  },
                  {
                    "id" : 120,
                    "_type" : "AMFile",
                    "src" : 54,
                    "trackNumber" : 0,
                    "attributes" : {
                      "ident" : "Slide 08.01",
                      "gain" : 1.0,
                      "mixToMono" : false,
                      "loudnessNormalization" : true
                    },
                      "channelNumber" : "0",
                    "effects" : [

                    ],
                    "start" : 11663,
                    "duration" : 597,
                    "mediaStart" : 0,
                    "mediaDuration" : 597,
                    "scalar" : 1,
                    "metadata" : {
                      "clipSpeedAttribute" : false
                    },
                    "animationTracks" : {

                    }
                  },
                  {
                    "id" : 121,
                    "_type" : "AMFile",
                    "src" : 55,
                    "trackNumber" : 0,
                    "attributes" : {
                      "ident" : "Slide 08.02",
                      "gain" : 1.0,
                      "mixToMono" : false,
                      "loudnessNormalization" : true
                    },
                      "channelNumber" : "0",
                    "effects" : [

                    ],
                    "start" : 12405,
                    "duration" : 557,
                    "mediaStart" : 0,
                    "mediaDuration" : 557,
                    "scalar" : 1,
                    "metadata" : {
                      "clipSpeedAttribute" : false
                    },
                    "animationTracks" : {

                    }
                  },
                  {
                    "id" : 122,
                    "_type" : "AMFile",
                    "src" : 56,
                    "trackNumber" : 0,
                    "attributes" : {
                      "ident" : "Slide 08.03",
                      "gain" : 1.0,
                      "mixToMono" : false,
                      "loudnessNormalization" : true
                    },
                      "channelNumber" : "0",
                    "effects" : [

                    ],
                    "start" : 13104,
                    "duration" : 725,
                    "mediaStart" : 0,
                    "mediaDuration" : 725,
                    "scalar" : 1,
                    "metadata" : {
                      "clipSpeedAttribute" : false
                    },
                    "animationTracks" : {

                    }
                  },
                  {
                    "id" : 123,
                    "_type" : "AMFile",
                    "src" : 57,
                    "trackNumber" : 0,
                    "attributes" : {
                      "ident" : "Slide 08.04",
                      "gain" : 1.0,
                      "mixToMono" : false,
                      "loudnessNormalization" : true
                    },
                      "channelNumber" : "0",
                    "effects" : [

                    ],
                    "start" : 13966,
                    "duration" : 636,
                    "mediaStart" : 0,
                    "mediaDuration" : 636,
                    "scalar" : 1,
                    "metadata" : {
                      "clipSpeedAttribute" : false
                    },
                    "animationTracks" : {

                    }
                  },
                  {
                    "id" : 124,
                    "_type" : "AMFile",
                    "src" : 12,
                    "trackNumber" : 0,
                    "attributes" : {
                      "ident" : "Slide 09.01",
                      "gain" : 1.0,
                      "mixToMono" : false,
                      "loudnessNormalization" : true
                    },
                      "channelNumber" : "0",
                    "effects" : [

                    ],
                    "start" : 14985,
                    "duration" : 770,
                    "mediaStart" : 0,
                    "mediaDuration" : 770,
                    "scalar" : 1,
                    "metadata" : {
                      "clipSpeedAttribute" : false
                    },
                    "animationTracks" : {

                    }
                  },
                  {
                    "id" : 125,
                    "_type" : "AMFile",
                    "src" : 13,
                    "trackNumber" : 0,
                    "attributes" : {
                      "ident" : "Slide 09.02",
                      "gain" : 1.0,
                      "mixToMono" : false,
                      "loudnessNormalization" : true
                    },
                      "channelNumber" : "0",
                    "effects" : [

                    ],
                    "start" : 15887,
                    "duration" : 479,
                    "mediaStart" : 0,
                    "mediaDuration" : 479,
                    "scalar" : 1,
                    "metadata" : {
                      "clipSpeedAttribute" : false
                    },
                    "animationTracks" : {

                    }
                  },
                  {
                    "id" : 126,
                    "_type" : "AMFile",
                    "src" : 14,
                    "trackNumber" : 0,
                    "attributes" : {
                      "ident" : "Slide 09.03",
                      "gain" : 1.0,
                      "mixToMono" : false,
                      "loudnessNormalization" : true
                    },
                      "channelNumber" : "0",
                    "effects" : [

                    ],
                    "start" : 16496,
                    "duration" : 363,
                    "mediaStart" : 0,
                    "mediaDuration" : 363,
                    "scalar" : 1,
                    "metadata" : {
                      "clipSpeedAttribute" : false
                    },
                    "animationTracks" : {

                    }
                  },
                  {
                    "id" : 127,
                    "_type" : "AMFile",
                    "src" : 15,
                    "trackNumber" : 0,
                    "attributes" : {
                      "ident" : "Slide 09.04",
                      "gain" : 1.0,
                      "mixToMono" : false,
                      "loudnessNormalization" : true
                    },
                      "channelNumber" : "0",
                    "effects" : [

                    ],
                    "start" : 16992,
                    "duration" : 387,
                    "mediaStart" : 0,
                    "mediaDuration" : 387,
                    "scalar" : 1,
                    "metadata" : {
                      "clipSpeedAttribute" : false
                    },
                    "animationTracks" : {

                    }
                  },
                  {
                    "id" : 128,
                    "_type" : "AMFile",
                    "src" : 58,
                    "trackNumber" : 0,
                    "attributes" : {
                      "ident" : "Slide 10.01",
                      "gain" : 1.0,
                      "mixToMono" : false,
                      "loudnessNormalization" : true
                    },
                      "channelNumber" : "0",
                    "effects" : [

                    ],
                    "start" : 17845,
                    "duration" : 840,
                    "mediaStart" : 0,
                    "mediaDuration" : 840,
                    "scalar" : 1,
                    "metadata" : {
                      "clipSpeedAttribute" : false
                    },
                    "animationTracks" : {

                    }
                  },
                  {
                    "id" : 129,
                    "_type" : "AMFile",
                    "src" : 59,
                    "trackNumber" : 0,
                    "attributes" : {
                      "ident" : "Slide 10.02",
                      "gain" : 1.0,
                      "mixToMono" : false,
                      "loudnessNormalization" : true
                    },
                      "channelNumber" : "0",
                    "effects" : [

                    ],
                    "start" : 18847,
                    "duration" : 405,
                    "mediaStart" : 0,
                    "mediaDuration" : 405,
                    "scalar" : 1,
                    "metadata" : {
                      "clipSpeedAttribute" : false
                    },
                    "animationTracks" : {

                    }
                  },
                  {
                    "id" : 130,
                    "_type" : "AMFile",
                    "src" : 61,
                    "trackNumber" : 0,
                    "attributes" : {
                      "ident" : "Slide 10.04",
                      "gain" : 1.0,
                      "mixToMono" : false,
                      "loudnessNormalization" : true
                    },
                      "channelNumber" : "0",
                    "effects" : [

                    ],
                    "start" : 19379,
                    "duration" : 1061,
                    "mediaStart" : 0,
                    "mediaDuration" : 1061,
                    "scalar" : 1,
                    "metadata" : {
                      "clipSpeedAttribute" : false
                    },
                    "animationTracks" : {

                    }
                  },
                  {
                    "id" : 131,
                    "_type" : "AMFile",
                    "src" : 62,
                    "trackNumber" : 0,
                    "attributes" : {
                      "ident" : "Slide 11.01",
                      "gain" : 1.0,
                      "mixToMono" : false,
                      "loudnessNormalization" : true
                    },
                      "channelNumber" : "0",
                    "parameters" : {
                      "volume" : 0.989010989010986
                    },
                    "effects" : [

                    ],
                    "start" : 20757,
                    "duration" : 677,
                    "mediaStart" : 0,
                    "mediaDuration" : 677,
                    "scalar" : 1,
                    "metadata" : {
                      "clipSpeedAttribute" : false
                    },
                    "animationTracks" : {

                    }
                  },
                  {
                    "id" : 132,
                    "_type" : "AMFile",
                    "src" : 63,
                    "trackNumber" : 0,
                    "attributes" : {
                      "ident" : "Slide 11.02",
                      "gain" : 1.0,
                      "mixToMono" : false,
                      "loudnessNormalization" : true
                    },
                      "channelNumber" : "0",
                    "parameters" : {
                      "volume" : 0.989010989010989
                    },
                    "effects" : [

                    ],
                    "start" : 21558,
                    "duration" : 666,
                    "mediaStart" : 0,
                    "mediaDuration" : 666,
                    "scalar" : 1,
                    "metadata" : {
                      "clipSpeedAttribute" : false
                    },
                    "animationTracks" : {

                    }
                  },
                  {
                    "id" : 133,
                    "_type" : "AMFile",
                    "src" : 64,
                    "trackNumber" : 0,
                    "attributes" : {
                      "ident" : "Slide 11.03",
                      "gain" : 1.0,
                      "mixToMono" : false,
                      "loudnessNormalization" : true
                    },
                      "channelNumber" : "0",
                    "effects" : [

                    ],
                    "start" : 22338,
                    "duration" : 693,
                    "mediaStart" : 0,
                    "mediaDuration" : 693,
                    "scalar" : 1,
                    "metadata" : {
                      "clipSpeedAttribute" : false
                    },
                    "animationTracks" : {

                    }
                  },
                  {
                    "id" : 134,
                    "_type" : "AMFile",
                    "src" : 65,
                    "trackNumber" : 0,
                    "attributes" : {
                      "ident" : "Slide 11.04",
                      "gain" : 1.0,
                      "mixToMono" : false,
                      "loudnessNormalization" : true
                    },
                      "channelNumber" : "0",
                    "effects" : [

                    ],
                    "start" : 23193,
                    "duration" : 488,
                    "mediaStart" : 0,
                    "mediaDuration" : 488,
                    "scalar" : 1,
                    "metadata" : {
                      "clipSpeedAttribute" : false
                    },
                    "animationTracks" : {

                    }
                  },
                  {
                    "id" : 135,
                    "_type" : "AMFile",
                    "src" : 66,
                    "trackNumber" : 0,
                    "attributes" : {
                      "ident" : "Slide 12.01",
                      "gain" : 1.0,
                      "mixToMono" : false,
                      "loudnessNormalization" : true
                    },
                      "channelNumber" : "0",
                    "parameters" : {
                      "volume" : 0.989010989010989
                    },
                    "effects" : [

                    ],
                    "start" : 23924,
                    "duration" : 632,
                    "mediaStart" : 0,
                    "mediaDuration" : 632,
                    "scalar" : 1,
                    "metadata" : {
                      "clipSpeedAttribute" : false
                    },
                    "animationTracks" : {

                    }
                  },
                  {
                    "id" : 136,
                    "_type" : "AMFile",
                    "src" : 16,
                    "trackNumber" : 0,
                    "attributes" : {
                      "ident" : "Slide 13.01",
                      "gain" : 1.0,
                      "mixToMono" : false,
                      "loudnessNormalization" : true
                    },
                      "channelNumber" : "0",
                    "effects" : [

                    ],
                    "start" : 25500,
                    "duration" : 677,
                    "mediaStart" : 0,
                    "mediaDuration" : 677,
                    "scalar" : 1,
                    "metadata" : {
                      "clipSpeedAttribute" : false
                    },
                    "animationTracks" : {

                    }
                  },
                  {
                    "id" : 137,
                    "_type" : "AMFile",
                    "src" : 32,
                    "trackNumber" : 0,
                    "attributes" : {
                      "ident" : "Slide 14.01",
                      "gain" : 1.0,
                      "mixToMono" : false,
                      "loudnessNormalization" : true
                    },
                      "channelNumber" : "0",
                    "parameters" : {
                      "volume" : 0.934065934065934
                    },
                    "effects" : [

                    ],
                    "start" : 26991,
                    "duration" : 363,
                    "mediaStart" : 0,
                    "mediaDuration" : 363,
                    "scalar" : 1,
                    "metadata" : {
                      "clipSpeedAttribute" : false
                    },
                    "animationTracks" : {

                    }
                  },
                  {
                    "id" : 138,
                    "_type" : "AMFile",
                    "src" : 33,
                    "trackNumber" : 0,
                    "attributes" : {
                      "ident" : "Slide 14.02",
                      "gain" : 1.0,
                      "mixToMono" : false,
                      "loudnessNormalization" : true
                    },
                      "channelNumber" : "0",
                    "effects" : [

                    ],
                    "start" : 27766,
                    "duration" : 179,
                    "mediaStart" : 0,
                    "mediaDuration" : 179,
                    "scalar" : 1,
                    "metadata" : {
                      "clipSpeedAttribute" : false
                    },
                    "animationTracks" : {

                    }
                  },
                  {
                    "id" : 139,
                    "_type" : "AMFile",
                    "src" : 34,
                    "trackNumber" : 0,
                    "attributes" : {
                      "ident" : "Slide 14.03",
                      "gain" : 1.0,
                      "mixToMono" : false,
                      "loudnessNormalization" : true
                    },
                      "channelNumber" : "0",
                    "effects" : [

                    ],
                    "start" : 28048,
                    "duration" : 333,
                    "mediaStart" : 0,
                    "mediaDuration" : 333,
                    "scalar" : 1,
                    "metadata" : {
                      "clipSpeedAttribute" : false
                    },
                    "animationTracks" : {

                    }
                  },
                  {
                    "id" : 140,
                    "_type" : "AMFile",
                    "src" : 35,
                    "trackNumber" : 0,
                    "attributes" : {
                      "ident" : "Slide 14.04",
                      "gain" : 1.0,
                      "mixToMono" : false,
                      "loudnessNormalization" : true
                    },
                      "channelNumber" : "0",
                    "effects" : [

                    ],
                    "start" : 28613,
                    "duration" : 174,
                    "mediaStart" : 0,
                    "mediaDuration" : 174,
                    "scalar" : 1,
                    "metadata" : {
                      "clipSpeedAttribute" : false
                    },
                    "animationTracks" : {

                    }
                  },
                  {
                    "id" : 141,
                    "_type" : "AMFile",
                    "src" : 36,
                    "trackNumber" : 0,
                    "attributes" : {
                      "ident" : "Slide 14.05",
                      "gain" : 1.0,
                      "mixToMono" : false,
                      "loudnessNormalization" : true
                    },
                      "channelNumber" : "0",
                    "effects" : [

                    ],
                    "start" : 29031,
                    "duration" : 261,
                    "mediaStart" : 0,
                    "mediaDuration" : 261,
                    "scalar" : 1,
                    "metadata" : {
                      "clipSpeedAttribute" : false
                    },
                    "animationTracks" : {

                    }
                  },
                  {
                    "id" : 142,
                    "_type" : "AMFile",
                    "src" : 37,
                    "trackNumber" : 0,
                    "attributes" : {
                      "ident" : "Slide 14.06",
                      "gain" : 1.0,
                      "mixToMono" : false,
                      "loudnessNormalization" : true
                    },
                      "channelNumber" : "0",
                    "effects" : [

                    ],
                    "start" : 29390,
                    "duration" : 264,
                    "mediaStart" : 0,
                    "mediaDuration" : 264,
                    "scalar" : 1,
                    "metadata" : {
                      "clipSpeedAttribute" : false
                    },
                    "animationTracks" : {

                    }
                  },
                  {
                    "id" : 143,
                    "_type" : "AMFile",
                    "src" : 17,
                    "trackNumber" : 0,
                    "attributes" : {
                      "ident" : "Slide 15.01",
                      "gain" : 1.0,
                      "mixToMono" : false,
                      "loudnessNormalization" : true
                    },
                      "channelNumber" : "0",
                    "effects" : [

                    ],
                    "start" : 29862,
                    "duration" : 297,
                    "mediaStart" : 0,
                    "mediaDuration" : 297,
                    "scalar" : 1,
                    "metadata" : {
                      "clipSpeedAttribute" : false
                    },
                    "animationTracks" : {

                    }
                  },
                  {
                    "id" : 144,
                    "_type" : "AMFile",
                    "src" : 18,
                    "trackNumber" : 0,
                    "attributes" : {
                      "ident" : "Slide 16.01",
                      "gain" : 1.0,
                      "mixToMono" : false,
                      "loudnessNormalization" : true
                    },
                      "channelNumber" : "0",
                    "effects" : [

                    ],
                    "start" : 30804,
                    "duration" : 603,
                    "mediaStart" : 0,
                    "mediaDuration" : 603,
                    "scalar" : 1,
                    "metadata" : {
                      "clipSpeedAttribute" : false
                    },
                    "animationTracks" : {

                    }
                  },
                  {
                    "id" : 145,
                    "_type" : "AMFile",
                    "src" : 19,
                    "trackNumber" : 0,
                    "attributes" : {
                      "ident" : "Slide 16.03",
                      "gain" : 1.0,
                      "mixToMono" : false,
                      "loudnessNormalization" : true
                    },
                      "channelNumber" : "0",
                    "effects" : [

                    ],
                    "start" : 31510,
                    "duration" : 645,
                    "mediaStart" : 0,
                    "mediaDuration" : 645,
                    "scalar" : 1,
                    "metadata" : {
                      "clipSpeedAttribute" : false
                    },
                    "animationTracks" : {

                    }
                  },
                  {
                    "id" : 146,
                    "_type" : "AMFile",
                    "src" : 21,
                    "trackNumber" : 0,
                    "attributes" : {
                      "ident" : "Slide 18.01",
                      "gain" : 1.0,
                      "mixToMono" : false,
                      "loudnessNormalization" : true
                    },
                      "channelNumber" : "0",
                    "effects" : [

                    ],
                    "start" : 32726,
                    "duration" : 557,
                    "mediaStart" : 0,
                    "mediaDuration" : 557,
                    "scalar" : 1,
                    "metadata" : {
                      "clipSpeedAttribute" : false
                    },
                    "animationTracks" : {

                    }
                  },
                  {
                    "id" : 147,
                    "_type" : "AMFile",
                    "src" : 22,
                    "trackNumber" : 0,
                    "attributes" : {
                      "ident" : "Slide 18.02",
                      "gain" : 1.0,
                      "mixToMono" : false,
                      "loudnessNormalization" : true
                    },
                      "channelNumber" : "0",
                    "effects" : [

                    ],
                    "start" : 33409,
                    "duration" : 756,
                    "mediaStart" : 0,
                    "mediaDuration" : 756,
                    "scalar" : 1,
                    "metadata" : {
                      "clipSpeedAttribute" : false
                    },
                    "animationTracks" : {

                    }
                  },
                  {
                    "id" : 148,
                    "_type" : "AMFile",
                    "src" : 23,
                    "trackNumber" : 0,
                    "attributes" : {
                      "ident" : "Slide 18.03",
                      "gain" : 1.0,
                      "mixToMono" : false,
                      "loudnessNormalization" : true
                    },
                      "channelNumber" : "0",
                    "effects" : [

                    ],
                    "start" : 34295,
                    "duration" : 582,
                    "mediaStart" : 0,
                    "mediaDuration" : 582,
                    "scalar" : 1,
                    "metadata" : {
                      "clipSpeedAttribute" : false
                    },
                    "animationTracks" : {

                    }
                  },
                  {
                    "id" : 149,
                    "_type" : "AMFile",
                    "src" : 28,
                    "trackNumber" : 0,
                    "attributes" : {
                      "ident" : "Slide 19.02",
                      "gain" : 1.0,
                      "mixToMono" : false,
                      "loudnessNormalization" : true
                    },
                      "channelNumber" : "0",
                    "effects" : [

                    ],
                    "start" : 35180,
                    "duration" : 449,
                    "mediaStart" : 0,
                    "mediaDuration" : 449,
                    "scalar" : 1,
                    "metadata" : {
                      "clipSpeedAttribute" : false
                    },
                    "animationTracks" : {

                    }
                  },
                  {
                    "id" : 150,
                    "_type" : "AMFile",
                    "src" : 29,
                    "trackNumber" : 0,
                    "attributes" : {
                      "ident" : "Slide 19.03",
                      "gain" : 1.0,
                      "mixToMono" : false,
                      "loudnessNormalization" : true
                    },
                      "channelNumber" : "0",
                    "parameters" : {
                      "volume" : 0.989010989010986
                    },
                    "effects" : [

                    ],
                    "start" : 35747,
                    "duration" : 488,
                    "mediaStart" : 0,
                    "mediaDuration" : 488,
                    "scalar" : 1,
                    "metadata" : {
                      "clipSpeedAttribute" : false
                    },
                    "animationTracks" : {

                    }
                  },
                  {
                    "id" : 151,
                    "_type" : "AMFile",
                    "src" : 38,
                    "trackNumber" : 0,
                    "attributes" : {
                      "ident" : "Slide 20.01",
                      "gain" : 1.0,
                      "mixToMono" : false,
                      "loudnessNormalization" : true
                    },
                      "channelNumber" : "0",
                    "parameters" : {
                      "volume" : 1.12244897959184
                    },
                    "effects" : [

                    ],
                    "start" : 36507,
                    "duration" : 630,
                    "mediaStart" : 0,
                    "mediaDuration" : 630,
                    "scalar" : 1,
                    "metadata" : {
                      "clipSpeedAttribute" : false
                    },
                    "animationTracks" : {

                    }
                  },
                  {
                    "id" : 152,
                    "_type" : "AMFile",
                    "src" : 39,
                    "trackNumber" : 0,
                    "attributes" : {
                      "ident" : "Slide 21.01",
                      "gain" : 1.0,
                      "mixToMono" : false,
                      "loudnessNormalization" : true
                    },
                      "channelNumber" : "0",
                    "effects" : [

                    ],
                    "start" : 37333,
                    "duration" : 390,
                    "mediaStart" : 0,
                    "mediaDuration" : 390,
                    "scalar" : 1,
                    "metadata" : {
                      "clipSpeedAttribute" : false
                    },
                    "animationTracks" : {

                    }
                  },
                  {
                    "id" : 153,
                    "_type" : "AMFile",
                    "src" : 40,
                    "trackNumber" : 0,
                    "attributes" : {
                      "ident" : "Slide 21.02",
                      "gain" : 1.0,
                      "mixToMono" : false,
                      "loudnessNormalization" : true
                    },
                      "channelNumber" : "0",
                    "effects" : [

                    ],
                    "start" : 38193,
                    "duration" : 582,
                    "mediaStart" : 0,
                    "mediaDuration" : 582,
                    "scalar" : 1,
                    "metadata" : {
                      "clipSpeedAttribute" : false
                    },
                    "animationTracks" : {

                    }
                  },
                  {
                    "id" : 154,
                    "_type" : "AMFile",
                    "src" : 41,
                    "trackNumber" : 0,
                    "attributes" : {
                      "ident" : "Slide 21.03",
                      "gain" : 1.0,
                      "mixToMono" : false,
                      "loudnessNormalization" : true
                    },
                      "channelNumber" : "0",
                    "effects" : [

                    ],
                    "start" : 38919,
                    "duration" : 513,
                    "mediaStart" : 0,
                    "mediaDuration" : 513,
                    "scalar" : 1,
                    "metadata" : {
                      "clipSpeedAttribute" : false
                    },
                    "animationTracks" : {

                    }
                  },
                  {
                    "id" : 155,
                    "_type" : "AMFile",
                    "src" : 42,
                    "trackNumber" : 0,
                    "attributes" : {
                      "ident" : "Slide 22.01",
                      "gain" : 1.0,
                      "mixToMono" : false,
                      "loudnessNormalization" : true
                    },
                      "channelNumber" : "0",
                    "effects" : [

                    ],
                    "start" : 39695,
                    "duration" : 428,
                    "mediaStart" : 0,
                    "mediaDuration" : 428,
                    "scalar" : 1,
                    "metadata" : {
                      "clipSpeedAttribute" : false
                    },
                    "animationTracks" : {

                    }
                  },
                  {
                    "id" : 156,
                    "_type" : "AMFile",
                    "src" : 43,
                    "trackNumber" : 0,
                    "attributes" : {
                      "ident" : "Slide 23.01",
                      "gain" : 1.0,
                      "mixToMono" : false,
                      "loudnessNormalization" : true
                    },
                      "channelNumber" : "0",
                    "effects" : [

                    ],
                    "start" : 40295,
                    "duration" : 428,
                    "mediaStart" : 0,
                    "mediaDuration" : 428,
                    "scalar" : 1,
                    "metadata" : {
                      "clipSpeedAttribute" : false
                    },
                    "animationTracks" : {

                    }
                  },
                  {
                    "id" : 157,
                    "_type" : "AMFile",
                    "src" : 45,
                    "trackNumber" : 0,
                    "attributes" : {
                      "ident" : "Slide 23.03",
                      "gain" : 1.0,
                      "mixToMono" : false,
                      "loudnessNormalization" : true
                    },
                      "channelNumber" : "0",
                    "effects" : [

                    ],
                    "start" : 41049,
                    "duration" : 693,
                    "mediaStart" : 0,
                    "mediaDuration" : 693,
                    "scalar" : 1,
                    "metadata" : {
                      "clipSpeedAttribute" : false
                    },
                    "animationTracks" : {

                    }
                  },
                  {
                    "id" : 158,
                    "_type" : "AMFile",
                    "src" : 46,
                    "trackNumber" : 0,
                    "attributes" : {
                      "ident" : "Slide 24.01",
                      "gain" : 1.0,
                      "mixToMono" : false,
                      "loudnessNormalization" : true
                    },
                      "channelNumber" : "0",
                    "effects" : [

                    ],
                    "start" : 41971,
                    "duration" : 1023,
                    "mediaStart" : 0,
                    "mediaDuration" : 1023,
                    "scalar" : 1,
                    "metadata" : {
                      "clipSpeedAttribute" : false
                    },
                    "animationTracks" : {

                    }
                  }
                ]
              },
              {
                "trackIndex" : 1,
                "medias" : [
                  {
                    "id" : 159,
                    "_type" : "IMFile",
                    "src" : 68,
                    "trackNumber" : 0,
                    "trimStartSum" : 0,
                    "attributes" : {
                      "ident" : "01-Beyond Decentralized Technology Overview v2-Beyond Decentralized"
                    },
                    "parameters" : {
                      "sourceCrop0" : {
                        "type" : "double",
                        "defaultValue" : 0.0,
                        "interp" : "eioe"
                      },
                      "sourceCrop1" : {
                        "type" : "double",
                        "defaultValue" : 0.0,
                        "interp" : "eioe"
                      },
                      "sourceCrop2" : {
                        "type" : "double",
                        "defaultValue" : 0.0,
                        "interp" : "eioe"
                      },
                      "sourceCrop3" : {
                        "type" : "double",
                        "defaultValue" : 0.0,
                        "interp" : "eioe"
                      },
                      "geometryCrop0" : {
                        "type" : "double",
                        "defaultValue" : 0.0,
                        "interp" : "eioe"
                      },
                      "geometryCrop1" : {
                        "type" : "double",
                        "defaultValue" : 0.0,
                        "interp" : "eioe"
                      },
                      "geometryCrop2" : {
                        "type" : "double",
                        "defaultValue" : 0.0,
                        "interp" : "eioe"
                      },
                      "geometryCrop3" : {
                        "type" : "double",
                        "defaultValue" : 0.0,
                        "interp" : "eioe"
                      }
                    },
                    "effects" : [

                    ],
                    "start" : 0,
                    "duration" : 794,
                    "mediaStart" : 0,
                    "mediaDuration" : 1,
                    "scalar" : 1,
                    "metadata" : {
                      "clipSpeedAttribute" : false
                    },
                    "animationTracks" : {

                    }
                  },
                  {
                    "id" : 160,
                    "_type" : "IMFile",
                    "src" : 69,
                    "trackNumber" : 0,
                    "trimStartSum" : 0,
                    "attributes" : {
                      "ident" : "02-Beyond Decentralized Technology Overview v2-Mission"
                    },
                    "parameters" : {
                      "sourceCrop0" : {
                        "type" : "double",
                        "defaultValue" : 0.0,
                        "interp" : "eioe"
                      },
                      "sourceCrop1" : {
                        "type" : "double",
                        "defaultValue" : 0.0,
                        "interp" : "eioe"
                      },
                      "sourceCrop2" : {
                        "type" : "double",
                        "defaultValue" : 0.0,
                        "interp" : "eioe"
                      },
                      "sourceCrop3" : {
                        "type" : "double",
                        "defaultValue" : 0.0,
                        "interp" : "eioe"
                      },
                      "geometryCrop0" : {
                        "type" : "double",
                        "defaultValue" : 0.0,
                        "interp" : "eioe"
                      },
                      "geometryCrop1" : {
                        "type" : "double",
                        "defaultValue" : 0.0,
                        "interp" : "eioe"
                      },
                      "geometryCrop2" : {
                        "type" : "double",
                        "defaultValue" : 0.0,
                        "interp" : "eioe"
                      },
                      "geometryCrop3" : {
                        "type" : "double",
                        "defaultValue" : 0.0,
                        "interp" : "eioe"
                      }
                    },
                    "effects" : [

                    ],
                    "start" : 794,
                    "duration" : 1450,
                    "mediaStart" : 0,
                    "mediaDuration" : 1,
                    "scalar" : 1,
                    "metadata" : {
                      "clipSpeedAttribute" : false
                    },
                    "animationTracks" : {

                    }
                  },
                  {
                    "id" : 161,
                    "_type" : "IMFile",
                    "src" : 70,
                    "trackNumber" : 0,
                    "trimStartSum" : 0,
                    "attributes" : {
                      "ident" : "03-Beyond Decentralized Technology Overview v2-The Story"
                    },
                    "parameters" : {
                      "sourceCrop0" : {
                        "type" : "double",
                        "defaultValue" : 0.0,
                        "interp" : "eioe"
                      },
                      "sourceCrop1" : {
                        "type" : "double",
                        "defaultValue" : 0.0,
                        "interp" : "eioe"
                      },
                      "sourceCrop2" : {
                        "type" : "double",
                        "defaultValue" : 0.0,
                        "interp" : "eioe"
                      },
                      "sourceCrop3" : {
                        "type" : "double",
                        "defaultValue" : 0.0,
                        "interp" : "eioe"
                      },
                      "geometryCrop0" : {
                        "type" : "double",
                        "defaultValue" : 0.0,
                        "interp" : "eioe"
                      },
                      "geometryCrop1" : {
                        "type" : "double",
                        "defaultValue" : 0.0,
                        "interp" : "eioe"
                      },
                      "geometryCrop2" : {
                        "type" : "double",
                        "defaultValue" : 0.0,
                        "interp" : "eioe"
                      },
                      "geometryCrop3" : {
                        "type" : "double",
                        "defaultValue" : 0.0,
                        "interp" : "eioe"
                      }
                    },
                    "effects" : [

                    ],
                    "start" : 2244,
                    "duration" : 1040,
                    "mediaStart" : 0,
                    "mediaDuration" : 1,
                    "scalar" : 1,
                    "metadata" : {
                      "clipSpeedAttribute" : false
                    },
                    "animationTracks" : {

                    }
                  },
                  {
                    "id" : 162,
                    "_type" : "IMFile",
                    "src" : 71,
                    "trackNumber" : 0,
                    "trimStartSum" : 0,
                    "attributes" : {
                      "ident" : "04-Beyond Decentralized Technology Overview v2"
                    },
                    "parameters" : {
                      "sourceCrop0" : {
                        "type" : "double",
                        "defaultValue" : 0.0,
                        "interp" : "eioe"
                      },
                      "sourceCrop1" : {
                        "type" : "double",
                        "defaultValue" : 0.0,
                        "interp" : "eioe"
                      },
                      "sourceCrop2" : {
                        "type" : "double",
                        "defaultValue" : 0.0,
                        "interp" : "eioe"
                      },
                      "sourceCrop3" : {
                        "type" : "double",
                        "defaultValue" : 0.0,
                        "interp" : "eioe"
                      },
                      "geometryCrop0" : {
                        "type" : "double",
                        "defaultValue" : 0.0,
                        "interp" : "eioe"
                      },
                      "geometryCrop1" : {
                        "type" : "double",
                        "defaultValue" : 0.0,
                        "interp" : "eioe"
                      },
                      "geometryCrop2" : {
                        "type" : "double",
                        "defaultValue" : 0.0,
                        "interp" : "eioe"
                      },
                      "geometryCrop3" : {
                        "type" : "double",
                        "defaultValue" : 0.0,
                        "interp" : "eioe"
                      }
                    },
                    "effects" : [

                    ],
                    "start" : 3284,
                    "duration" : 1754,
                    "mediaStart" : 0,
                    "mediaDuration" : 1,
                    "scalar" : 1,
                    "metadata" : {
                      "clipSpeedAttribute" : false
                    },
                    "animationTracks" : {

                    }
                  },
                  {
                    "id" : 163,
                    "_type" : "IMFile",
                    "src" : 72,
                    "trackNumber" : 0,
                    "trimStartSum" : 0,
                    "attributes" : {
                      "ident" : "05-Beyond Decentralized Technology Overview v2"
                    },
                    "parameters" : {
                      "sourceCrop0" : {
                        "type" : "double",
                        "defaultValue" : 0.0,
                        "interp" : "eioe"
                      },
                      "sourceCrop1" : {
                        "type" : "double",
                        "defaultValue" : 0.0,
                        "interp" : "eioe"
                      },
                      "sourceCrop2" : {
                        "type" : "double",
                        "defaultValue" : 0.0,
                        "interp" : "eioe"
                      },
                      "sourceCrop3" : {
                        "type" : "double",
                        "defaultValue" : 0.0,
                        "interp" : "eioe"
                      },
                      "geometryCrop0" : {
                        "type" : "double",
                        "defaultValue" : 0.0,
                        "interp" : "eioe"
                      },
                      "geometryCrop1" : {
                        "type" : "double",
                        "defaultValue" : 0.0,
                        "interp" : "eioe"
                      },
                      "geometryCrop2" : {
                        "type" : "double",
                        "defaultValue" : 0.0,
                        "interp" : "eioe"
                      },
                      "geometryCrop3" : {
                        "type" : "double",
                        "defaultValue" : 0.0,
                        "interp" : "eioe"
                      }
                    },
                    "effects" : [

                    ],
                    "start" : 5038,
                    "duration" : 215,
                    "mediaStart" : 0,
                    "mediaDuration" : 1,
                    "scalar" : 1,
                    "metadata" : {
                      "clipSpeedAttribute" : false
                    },
                    "animationTracks" : {

                    }
                  },
                  {
                    "id" : 164,
                    "_type" : "IMFile",
                    "src" : 73,
                    "trackNumber" : 0,
                    "trimStartSum" : 0,
                    "attributes" : {
                      "ident" : "06-Beyond Decentralized Technology Overview v2"
                    },
                    "parameters" : {
                      "sourceCrop0" : {
                        "type" : "double",
                        "defaultValue" : 0.0,
                        "interp" : "eioe"
                      },
                      "sourceCrop1" : {
                        "type" : "double",
                        "defaultValue" : 0.0,
                        "interp" : "eioe"
                      },
                      "sourceCrop2" : {
                        "type" : "double",
                        "defaultValue" : 0.0,
                        "interp" : "eioe"
                      },
                      "sourceCrop3" : {
                        "type" : "double",
                        "defaultValue" : 0.0,
                        "interp" : "eioe"
                      },
                      "geometryCrop0" : {
                        "type" : "double",
                        "defaultValue" : 0.0,
                        "interp" : "eioe"
                      },
                      "geometryCrop1" : {
                        "type" : "double",
                        "defaultValue" : 0.0,
                        "interp" : "eioe"
                      },
                      "geometryCrop2" : {
                        "type" : "double",
                        "defaultValue" : 0.0,
                        "interp" : "eioe"
                      },
                      "geometryCrop3" : {
                        "type" : "double",
                        "defaultValue" : 0.0,
                        "interp" : "eioe"
                      }
                    },
                    "effects" : [

                    ],
                    "start" : 5253,
                    "duration" : 2035,
                    "mediaStart" : 0,
                    "mediaDuration" : 1,
                    "scalar" : 1,
                    "metadata" : {
                      "clipSpeedAttribute" : false
                    },
                    "animationTracks" : {

                    }
                  },
                  {
                    "id" : 165,
                    "_type" : "IMFile",
                    "src" : 74,
                    "trackNumber" : 0,
                    "trimStartSum" : 0,
                    "attributes" : {
                      "ident" : "07-Beyond Decentralized Technology Overview v2"
                    },
                    "parameters" : {
                      "sourceCrop0" : {
                        "type" : "double",
                        "defaultValue" : 0.0,
                        "interp" : "eioe"
                      },
                      "sourceCrop1" : {
                        "type" : "double",
                        "defaultValue" : 0.0,
                        "interp" : "eioe"
                      },
                      "sourceCrop2" : {
                        "type" : "double",
                        "defaultValue" : 0.0,
                        "interp" : "eioe"
                      },
                      "sourceCrop3" : {
                        "type" : "double",
                        "defaultValue" : 0.0,
                        "interp" : "eioe"
                      },
                      "geometryCrop0" : {
                        "type" : "double",
                        "defaultValue" : 0.0,
                        "interp" : "eioe"
                      },
                      "geometryCrop1" : {
                        "type" : "double",
                        "defaultValue" : 0.0,
                        "interp" : "eioe"
                      },
                      "geometryCrop2" : {
                        "type" : "double",
                        "defaultValue" : 0.0,
                        "interp" : "eioe"
                      },
                      "geometryCrop3" : {
                        "type" : "double",
                        "defaultValue" : 0.0,
                        "interp" : "eioe"
                      }
                    },
                    "effects" : [

                    ],
                    "start" : 7304,
                    "duration" : 852,
                    "mediaStart" : 0,
                    "mediaDuration" : 1,
                    "scalar" : 1,
                    "metadata" : {
                      "clipSpeedAttribute" : false
                    },
                    "animationTracks" : {

                    }
                  },
                  {
                    "id" : 166,
                    "_type" : "IMFile",
                    "src" : 73,
                    "trackNumber" : 0,
                    "trimStartSum" : -20,
                    "attributes" : {
                      "ident" : "06-Beyond Decentralized Technology Overview v2"
                    },
                    "parameters" : {
                      "sourceCrop0" : {
                        "type" : "double",
                        "defaultValue" : 0.0,
                        "interp" : "eioe"
                      },
                      "sourceCrop1" : {
                        "type" : "double",
                        "defaultValue" : 0.0,
                        "interp" : "eioe"
                      },
                      "sourceCrop2" : {
                        "type" : "double",
                        "defaultValue" : 0.0,
                        "interp" : "eioe"
                      },
                      "sourceCrop3" : {
                        "type" : "double",
                        "defaultValue" : 0.0,
                        "interp" : "eioe"
                      },
                      "geometryCrop0" : {
                        "type" : "double",
                        "defaultValue" : 0.0,
                        "interp" : "eioe"
                      },
                      "geometryCrop1" : {
                        "type" : "double",
                        "defaultValue" : 0.0,
                        "interp" : "eioe"
                      },
                      "geometryCrop2" : {
                        "type" : "double",
                        "defaultValue" : 0.0,
                        "interp" : "eioe"
                      },
                      "geometryCrop3" : {
                        "type" : "double",
                        "defaultValue" : 0.0,
                        "interp" : "eioe"
                      }
                    },
                    "effects" : [

                    ],
                    "start" : 8156,
                    "duration" : 1638,
                    "mediaStart" : 0,
                    "mediaDuration" : 1,
                    "scalar" : 1,
                    "metadata" : {
                      "clipSpeedAttribute" : false
                    },
                    "animationTracks" : {

                    }
                  },
                  {
                    "id" : 167,
                    "_type" : "IMFile",
                    "src" : 75,
                    "trackNumber" : 0,
                    "trimStartSum" : -8,
                    "attributes" : {
                      "ident" : "08-Beyond Decentralized Technology Overview v2"
                    },
                    "parameters" : {
                      "sourceCrop0" : {
                        "type" : "double",
                        "defaultValue" : 0.0,
                        "interp" : "eioe"
                      },
                      "sourceCrop1" : {
                        "type" : "double",
                        "defaultValue" : 0.0,
                        "interp" : "eioe"
                      },
                      "sourceCrop2" : {
                        "type" : "double",
                        "defaultValue" : 0.0,
                        "interp" : "eioe"
                      },
                      "sourceCrop3" : {
                        "type" : "double",
                        "defaultValue" : 0.0,
                        "interp" : "eioe"
                      },
                      "geometryCrop0" : {
                        "type" : "double",
                        "defaultValue" : 0.0,
                        "interp" : "eioe"
                      },
                      "geometryCrop1" : {
                        "type" : "double",
                        "defaultValue" : 0.0,
                        "interp" : "eioe"
                      },
                      "geometryCrop2" : {
                        "type" : "double",
                        "defaultValue" : 0.0,
                        "interp" : "eioe"
                      },
                      "geometryCrop3" : {
                        "type" : "double",
                        "defaultValue" : 0.0,
                        "interp" : "eioe"
                      }
                    },
                    "effects" : [

                    ],
                    "start" : 9794,
                    "duration" : 1724,
                    "mediaStart" : 0,
                    "mediaDuration" : 1,
                    "scalar" : 1,
                    "metadata" : {
                      "clipSpeedAttribute" : false
                    },
                    "animationTracks" : {

                    }
                  },
                  {
                    "id" : 168,
                    "_type" : "IMFile",
                    "src" : 76,
                    "trackNumber" : 0,
                    "trimStartSum" : 0,
                    "attributes" : {
                      "ident" : "09-Beyond Decentralized Technology Overview v2"
                    },
                    "parameters" : {
                      "sourceCrop0" : {
                        "type" : "double",
                        "defaultValue" : 0.0,
                        "interp" : "eioe"
                      },
                      "sourceCrop1" : {
                        "type" : "double",
                        "defaultValue" : 0.0,
                        "interp" : "eioe"
                      },
                      "sourceCrop2" : {
                        "type" : "double",
                        "defaultValue" : 0.0,
                        "interp" : "eioe"
                      },
                      "sourceCrop3" : {
                        "type" : "double",
                        "defaultValue" : 0.0,
                        "interp" : "eioe"
                      },
                      "geometryCrop0" : {
                        "type" : "double",
                        "defaultValue" : 0.0,
                        "interp" : "eioe"
                      },
                      "geometryCrop1" : {
                        "type" : "double",
                        "defaultValue" : 0.0,
                        "interp" : "eioe"
                      },
                      "geometryCrop2" : {
                        "type" : "double",
                        "defaultValue" : 0.0,
                        "interp" : "eioe"
                      },
                      "geometryCrop3" : {
                        "type" : "double",
                        "defaultValue" : 0.0,
                        "interp" : "eioe"
                      }
                    },
                    "effects" : [

                    ],
                    "start" : 11518,
                    "duration" : 3185,
                    "mediaStart" : 0,
                    "mediaDuration" : 1,
                    "scalar" : 1,
                    "metadata" : {
                      "clipSpeedAttribute" : false
                    },
                    "animationTracks" : {

                    }
                  },
                  {
                    "id" : 169,
                    "_type" : "IMFile",
                    "src" : 77,
                    "trackNumber" : 0,
                    "trimStartSum" : 0,
                    "attributes" : {
                      "ident" : "10-Beyond Decentralized Technology Overview v2"
                    },
                    "parameters" : {
                      "sourceCrop0" : {
                        "type" : "double",
                        "defaultValue" : 0.0,
                        "interp" : "eioe"
                      },
                      "sourceCrop1" : {
                        "type" : "double",
                        "defaultValue" : 0.0,
                        "interp" : "eioe"
                      },
                      "sourceCrop2" : {
                        "type" : "double",
                        "defaultValue" : 0.0,
                        "interp" : "eioe"
                      },
                      "sourceCrop3" : {
                        "type" : "double",
                        "defaultValue" : 0.0,
                        "interp" : "eioe"
                      },
                      "geometryCrop0" : {
                        "type" : "double",
                        "defaultValue" : 0.0,
                        "interp" : "eioe"
                      },
                      "geometryCrop1" : {
                        "type" : "double",
                        "defaultValue" : 0.0,
                        "interp" : "eioe"
                      },
                      "geometryCrop2" : {
                        "type" : "double",
                        "defaultValue" : 0.0,
                        "interp" : "eioe"
                      },
                      "geometryCrop3" : {
                        "type" : "double",
                        "defaultValue" : 0.0,
                        "interp" : "eioe"
                      }
                    },
                    "effects" : [

                    ],
                    "start" : 14703,
                    "duration" : 2792,
                    "mediaStart" : 0,
                    "mediaDuration" : 1,
                    "scalar" : 1,
                    "metadata" : {
                      "clipSpeedAttribute" : false
                    },
                    "animationTracks" : {

                    }
                  },
                  {
                    "id" : 170,
                    "_type" : "IMFile",
                    "src" : 78,
                    "trackNumber" : 0,
                    "trimStartSum" : 0,
                    "attributes" : {
                      "ident" : "11-Beyond Decentralized Technology Overview v2"
                    },
                    "parameters" : {
                      "sourceCrop0" : {
                        "type" : "double",
                        "defaultValue" : 0.0,
                        "interp" : "eioe"
                      },
                      "sourceCrop1" : {
                        "type" : "double",
                        "defaultValue" : 0.0,
                        "interp" : "eioe"
                      },
                      "sourceCrop2" : {
                        "type" : "double",
                        "defaultValue" : 0.0,
                        "interp" : "eioe"
                      },
                      "sourceCrop3" : {
                        "type" : "double",
                        "defaultValue" : 0.0,
                        "interp" : "eioe"
                      },
                      "geometryCrop0" : {
                        "type" : "double",
                        "defaultValue" : 0.0,
                        "interp" : "eioe"
                      },
                      "geometryCrop1" : {
                        "type" : "double",
                        "defaultValue" : 0.0,
                        "interp" : "eioe"
                      },
                      "geometryCrop2" : {
                        "type" : "double",
                        "defaultValue" : 0.0,
                        "interp" : "eioe"
                      },
                      "geometryCrop3" : {
                        "type" : "double",
                        "defaultValue" : 0.0,
                        "interp" : "eioe"
                      }
                    },
                    "effects" : [

                    ],
                    "start" : 17495,
                    "duration" : 3040,
                    "mediaStart" : 0,
                    "mediaDuration" : 1,
                    "scalar" : 1,
                    "metadata" : {
                      "clipSpeedAttribute" : false
                    },
                    "animationTracks" : {

                    }
                  },
                  {
                    "id" : 171,
                    "_type" : "IMFile",
                    "src" : 79,
                    "trackNumber" : 0,
                    "trimStartSum" : 0,
                    "attributes" : {
                      "ident" : "12-Beyond Decentralized Technology Overview v2"
                    },
                    "parameters" : {
                      "sourceCrop0" : {
                        "type" : "double",
                        "defaultValue" : 0.0,
                        "interp" : "eioe"
                      },
                      "sourceCrop1" : {
                        "type" : "double",
                        "defaultValue" : 0.0,
                        "interp" : "eioe"
                      },
                      "sourceCrop2" : {
                        "type" : "double",
                        "defaultValue" : 0.0,
                        "interp" : "eioe"
                      },
                      "sourceCrop3" : {
                        "type" : "double",
                        "defaultValue" : 0.0,
                        "interp" : "eioe"
                      },
                      "geometryCrop0" : {
                        "type" : "double",
                        "defaultValue" : 0.0,
                        "interp" : "eioe"
                      },
                      "geometryCrop1" : {
                        "type" : "double",
                        "defaultValue" : 0.0,
                        "interp" : "eioe"
                      },
                      "geometryCrop2" : {
                        "type" : "double",
                        "defaultValue" : 0.0,
                        "interp" : "eioe"
                      },
                      "geometryCrop3" : {
                        "type" : "double",
                        "defaultValue" : 0.0,
                        "interp" : "eioe"
                      }
                    },
                    "effects" : [

                    ],
                    "start" : 20535,
                    "duration" : 3268,
                    "mediaStart" : 0,
                    "mediaDuration" : 1,
                    "scalar" : 1,
                    "metadata" : {
                      "clipSpeedAttribute" : false
                    },
                    "animationTracks" : {

                    }
                  },
                  {
                    "id" : 172,
                    "_type" : "IMFile",
                    "src" : 80,
                    "trackNumber" : 0,
                    "trimStartSum" : 0,
                    "attributes" : {
                      "ident" : "13-Beyond Decentralized Technology Overview v2"
                    },
                    "parameters" : {
                      "sourceCrop0" : {
                        "type" : "double",
                        "defaultValue" : 0.0,
                        "interp" : "eioe"
                      },
                      "sourceCrop1" : {
                        "type" : "double",
                        "defaultValue" : 0.0,
                        "interp" : "eioe"
                      },
                      "sourceCrop2" : {
                        "type" : "double",
                        "defaultValue" : 0.0,
                        "interp" : "eioe"
                      },
                      "sourceCrop3" : {
                        "type" : "double",
                        "defaultValue" : 0.0,
                        "interp" : "eioe"
                      },
                      "geometryCrop0" : {
                        "type" : "double",
                        "defaultValue" : 0.0,
                        "interp" : "eioe"
                      },
                      "geometryCrop1" : {
                        "type" : "double",
                        "defaultValue" : 0.0,
                        "interp" : "eioe"
                      },
                      "geometryCrop2" : {
                        "type" : "double",
                        "defaultValue" : 0.0,
                        "interp" : "eioe"
                      },
                      "geometryCrop3" : {
                        "type" : "double",
                        "defaultValue" : 0.0,
                        "interp" : "eioe"
                      }
                    },
                    "effects" : [

                    ],
                    "start" : 23803,
                    "duration" : 854,
                    "mediaStart" : 0,
                    "mediaDuration" : 1,
                    "scalar" : 1,
                    "metadata" : {
                      "clipSpeedAttribute" : false
                    },
                    "animationTracks" : {

                    }
                  },
                  {
                    "id" : 173,
                    "_type" : "IMFile",
                    "src" : 81,
                    "trackNumber" : 0,
                    "trimStartSum" : 0,
                    "attributes" : {
                      "ident" : "14-Beyond Decentralized Technology Overview v2"
                    },
                    "parameters" : {
                      "sourceCrop0" : {
                        "type" : "double",
                        "defaultValue" : 0.0,
                        "interp" : "eioe"
                      },
                      "sourceCrop1" : {
                        "type" : "double",
                        "defaultValue" : 0.0,
                        "interp" : "eioe"
                      },
                      "sourceCrop2" : {
                        "type" : "double",
                        "defaultValue" : 0.0,
                        "interp" : "eioe"
                      },
                      "sourceCrop3" : {
                        "type" : "double",
                        "defaultValue" : 0.0,
                        "interp" : "eioe"
                      },
                      "geometryCrop0" : {
                        "type" : "double",
                        "defaultValue" : 0.0,
                        "interp" : "eioe"
                      },
                      "geometryCrop1" : {
                        "type" : "double",
                        "defaultValue" : 0.0,
                        "interp" : "eioe"
                      },
                      "geometryCrop2" : {
                        "type" : "double",
                        "defaultValue" : 0.0,
                        "interp" : "eioe"
                      },
                      "geometryCrop3" : {
                        "type" : "double",
                        "defaultValue" : 0.0,
                        "interp" : "eioe"
                      }
                    },
                    "effects" : [

                    ],
                    "start" : 24657,
                    "duration" : 723,
                    "mediaStart" : 0,
                    "mediaDuration" : 1,
                    "scalar" : 1,
                    "metadata" : {
                      "clipSpeedAttribute" : false
                    },
                    "animationTracks" : {

                    }
                  },
                  {
                    "id" : 174,
                    "_type" : "IMFile",
                    "src" : 82,
                    "trackNumber" : 0,
                    "trimStartSum" : 0,
                    "attributes" : {
                      "ident" : "15-Beyond Decentralized Technology Overview v2"
                    },
                    "parameters" : {
                      "sourceCrop0" : {
                        "type" : "double",
                        "defaultValue" : 0.0,
                        "interp" : "eioe"
                      },
                      "sourceCrop1" : {
                        "type" : "double",
                        "defaultValue" : 0.0,
                        "interp" : "eioe"
                      },
                      "sourceCrop2" : {
                        "type" : "double",
                        "defaultValue" : 0.0,
                        "interp" : "eioe"
                      },
                      "sourceCrop3" : {
                        "type" : "double",
                        "defaultValue" : 0.0,
                        "interp" : "eioe"
                      },
                      "geometryCrop0" : {
                        "type" : "double",
                        "defaultValue" : 0.0,
                        "interp" : "eioe"
                      },
                      "geometryCrop1" : {
                        "type" : "double",
                        "defaultValue" : 0.0,
                        "interp" : "eioe"
                      },
                      "geometryCrop2" : {
                        "type" : "double",
                        "defaultValue" : 0.0,
                        "interp" : "eioe"
                      },
                      "geometryCrop3" : {
                        "type" : "double",
                        "defaultValue" : 0.0,
                        "interp" : "eioe"
                      }
                    },
                    "effects" : [

                    ],
                    "start" : 25380,
                    "duration" : 876,
                    "mediaStart" : 0,
                    "mediaDuration" : 1,
                    "scalar" : 1,
                    "metadata" : {
                      "clipSpeedAttribute" : false
                    },
                    "animationTracks" : {

                    }
                  },
                  {
                    "id" : 175,
                    "_type" : "IMFile",
                    "src" : 83,
                    "trackNumber" : 0,
                    "trimStartSum" : 0,
                    "attributes" : {
                      "ident" : "16-Beyond Decentralized Technology Overview v2"
                    },
                    "parameters" : {
                      "sourceCrop0" : {
                        "type" : "double",
                        "defaultValue" : 0.0,
                        "interp" : "eioe"
                      },
                      "sourceCrop1" : {
                        "type" : "double",
                        "defaultValue" : 0.0,
                        "interp" : "eioe"
                      },
                      "sourceCrop2" : {
                        "type" : "double",
                        "defaultValue" : 0.0,
                        "interp" : "eioe"
                      },
                      "sourceCrop3" : {
                        "type" : "double",
                        "defaultValue" : 0.0,
                        "interp" : "eioe"
                      },
                      "geometryCrop0" : {
                        "type" : "double",
                        "defaultValue" : 0.0,
                        "interp" : "eioe"
                      },
                      "geometryCrop1" : {
                        "type" : "double",
                        "defaultValue" : 0.0,
                        "interp" : "eioe"
                      },
                      "geometryCrop2" : {
                        "type" : "double",
                        "defaultValue" : 0.0,
                        "interp" : "eioe"
                      },
                      "geometryCrop3" : {
                        "type" : "double",
                        "defaultValue" : 0.0,
                        "interp" : "eioe"
                      }
                    },
                    "effects" : [

                    ],
                    "start" : 26256,
                    "duration" : 605,
                    "mediaStart" : 0,
                    "mediaDuration" : 1,
                    "scalar" : 1,
                    "metadata" : {
                      "clipSpeedAttribute" : false
                    },
                    "animationTracks" : {

                    }
                  },
                  {
                    "id" : 176,
                    "_type" : "IMFile",
                    "src" : 84,
                    "trackNumber" : 0,
                    "trimStartSum" : 0,
                    "attributes" : {
                      "ident" : "17-Beyond Decentralized Technology Overview v2"
                    },
                    "parameters" : {
                      "sourceCrop0" : {
                        "type" : "double",
                        "defaultValue" : 0.0,
                        "interp" : "eioe"
                      },
                      "sourceCrop1" : {
                        "type" : "double",
                        "defaultValue" : 0.0,
                        "interp" : "eioe"
                      },
                      "sourceCrop2" : {
                        "type" : "double",
                        "defaultValue" : 0.0,
                        "interp" : "eioe"
                      },
                      "sourceCrop3" : {
                        "type" : "double",
                        "defaultValue" : 0.0,
                        "interp" : "eioe"
                      },
                      "geometryCrop0" : {
                        "type" : "double",
                        "defaultValue" : 0.0,
                        "interp" : "eioe"
                      },
                      "geometryCrop1" : {
                        "type" : "double",
                        "defaultValue" : 0.0,
                        "interp" : "eioe"
                      },
                      "geometryCrop2" : {
                        "type" : "double",
                        "defaultValue" : 0.0,
                        "interp" : "eioe"
                      },
                      "geometryCrop3" : {
                        "type" : "double",
                        "defaultValue" : 0.0,
                        "interp" : "eioe"
                      }
                    },
                    "effects" : [

                    ],
                    "start" : 26861,
                    "duration" : 618,
                    "mediaStart" : 0,
                    "mediaDuration" : 1,
                    "scalar" : 1,
                    "metadata" : {
                      "clipSpeedAttribute" : false
                    },
                    "animationTracks" : {

                    }
                  },
                  {
                    "id" : 177,
                    "_type" : "IMFile",
                    "src" : 85,
                    "trackNumber" : 0,
                    "trimStartSum" : 0,
                    "attributes" : {
                      "ident" : "18-Beyond Decentralized Technology Overview v2"
                    },
                    "parameters" : {
                      "sourceCrop0" : {
                        "type" : "double",
                        "defaultValue" : 0.0,
                        "interp" : "eioe"
                      },
                      "sourceCrop1" : {
                        "type" : "double",
                        "defaultValue" : 0.0,
                        "interp" : "eioe"
                      },
                      "sourceCrop2" : {
                        "type" : "double",
                        "defaultValue" : 0.0,
                        "interp" : "eioe"
                      },
                      "sourceCrop3" : {
                        "type" : "double",
                        "defaultValue" : 0.0,
                        "interp" : "eioe"
                      },
                      "geometryCrop0" : {
                        "type" : "double",
                        "defaultValue" : 0.0,
                        "interp" : "eioe"
                      },
                      "geometryCrop1" : {
                        "type" : "double",
                        "defaultValue" : 0.0,
                        "interp" : "eioe"
                      },
                      "geometryCrop2" : {
                        "type" : "double",
                        "defaultValue" : 0.0,
                        "interp" : "eioe"
                      },
                      "geometryCrop3" : {
                        "type" : "double",
                        "defaultValue" : 0.0,
                        "interp" : "eioe"
                      }
                    },
                    "effects" : [

                    ],
                    "start" : 27479,
                    "duration" : 997,
                    "mediaStart" : 0,
                    "mediaDuration" : 1,
                    "scalar" : 1,
                    "metadata" : {
                      "clipSpeedAttribute" : false
                    },
                    "animationTracks" : {

                    }
                  },
                  {
                    "id" : 178,
                    "_type" : "IMFile",
                    "src" : 81,
                    "trackNumber" : 0,
                    "trimStartSum" : 0,
                    "attributes" : {
                      "ident" : "14-Beyond Decentralized Technology Overview v2"
                    },
                    "parameters" : {
                      "sourceCrop0" : {
                        "type" : "double",
                        "defaultValue" : 0.0,
                        "interp" : "eioe"
                      },
                      "sourceCrop1" : {
                        "type" : "double",
                        "defaultValue" : 0.0,
                        "interp" : "eioe"
                      },
                      "sourceCrop2" : {
                        "type" : "double",
                        "defaultValue" : 0.0,
                        "interp" : "eioe"
                      },
                      "sourceCrop3" : {
                        "type" : "double",
                        "defaultValue" : 0.0,
                        "interp" : "eioe"
                      },
                      "geometryCrop0" : {
                        "type" : "double",
                        "defaultValue" : 0.0,
                        "interp" : "eioe"
                      },
                      "geometryCrop1" : {
                        "type" : "double",
                        "defaultValue" : 0.0,
                        "interp" : "eioe"
                      },
                      "geometryCrop2" : {
                        "type" : "double",
                        "defaultValue" : 0.0,
                        "interp" : "eioe"
                      },
                      "geometryCrop3" : {
                        "type" : "double",
                        "defaultValue" : 0.0,
                        "interp" : "eioe"
                      }
                    },
                    "effects" : [

                    ],
                    "start" : 28476,
                    "duration" : 401,
                    "mediaStart" : 0,
                    "mediaDuration" : 1,
                    "scalar" : 1,
                    "metadata" : {
                      "clipSpeedAttribute" : false
                    },
                    "animationTracks" : {

                    }
                  },
                  {
                    "id" : 179,
                    "_type" : "IMFile",
                    "src" : 85,
                    "trackNumber" : 0,
                    "trimStartSum" : 0,
                    "attributes" : {
                      "ident" : "18-Beyond Decentralized Technology Overview v2"
                    },
                    "parameters" : {
                      "sourceCrop0" : {
                        "type" : "double",
                        "defaultValue" : 0.0,
                        "interp" : "eioe"
                      },
                      "sourceCrop1" : {
                        "type" : "double",
                        "defaultValue" : 0.0,
                        "interp" : "eioe"
                      },
                      "sourceCrop2" : {
                        "type" : "double",
                        "defaultValue" : 0.0,
                        "interp" : "eioe"
                      },
                      "sourceCrop3" : {
                        "type" : "double",
                        "defaultValue" : 0.0,
                        "interp" : "eioe"
                      },
                      "geometryCrop0" : {
                        "type" : "double",
                        "defaultValue" : 0.0,
                        "interp" : "eioe"
                      },
                      "geometryCrop1" : {
                        "type" : "double",
                        "defaultValue" : 0.0,
                        "interp" : "eioe"
                      },
                      "geometryCrop2" : {
                        "type" : "double",
                        "defaultValue" : 0.0,
                        "interp" : "eioe"
                      },
                      "geometryCrop3" : {
                        "type" : "double",
                        "defaultValue" : 0.0,
                        "interp" : "eioe"
                      }
                    },
                    "effects" : [

                    ],
                    "start" : 28877,
                    "duration" : 862,
                    "mediaStart" : 0,
                    "mediaDuration" : 1,
                    "scalar" : 1,
                    "metadata" : {
                      "clipSpeedAttribute" : false
                    },
                    "animationTracks" : {

                    }
                  },
                  {
                    "id" : 180,
                    "_type" : "IMFile",
                    "src" : 86,
                    "trackNumber" : 0,
                    "trimStartSum" : 0,
                    "attributes" : {
                      "ident" : "19-Beyond Decentralized Technology Overview v2"
                    },
                    "parameters" : {
                      "sourceCrop0" : {
                        "type" : "double",
                        "defaultValue" : 0.0,
                        "interp" : "eioe"
                      },
                      "sourceCrop1" : {
                        "type" : "double",
                        "defaultValue" : 0.0,
                        "interp" : "eioe"
                      },
                      "sourceCrop2" : {
                        "type" : "double",
                        "defaultValue" : 0.0,
                        "interp" : "eioe"
                      },
                      "sourceCrop3" : {
                        "type" : "double",
                        "defaultValue" : 0.0,
                        "interp" : "eioe"
                      },
                      "geometryCrop0" : {
                        "type" : "double",
                        "defaultValue" : 0.0,
                        "interp" : "eioe"
                      },
                      "geometryCrop1" : {
                        "type" : "double",
                        "defaultValue" : 0.0,
                        "interp" : "eioe"
                      },
                      "geometryCrop2" : {
                        "type" : "double",
                        "defaultValue" : 0.0,
                        "interp" : "eioe"
                      },
                      "geometryCrop3" : {
                        "type" : "double",
                        "defaultValue" : 0.0,
                        "interp" : "eioe"
                      }
                    },
                    "effects" : [

                    ],
                    "start" : 29739,
                    "duration" : 512,
                    "mediaStart" : 0,
                    "mediaDuration" : 1,
                    "scalar" : 1,
                    "metadata" : {
                      "clipSpeedAttribute" : false
                    },
                    "animationTracks" : {

                    }
                  },
                  {
                    "id" : 181,
                    "_type" : "IMFile",
                    "src" : 87,
                    "trackNumber" : 0,
                    "trimStartSum" : 0,
                    "attributes" : {
                      "ident" : "20-Beyond Decentralized Technology Overview v2"
                    },
                    "parameters" : {
                      "sourceCrop0" : {
                        "type" : "double",
                        "defaultValue" : 0.0,
                        "interp" : "eioe"
                      },
                      "sourceCrop1" : {
                        "type" : "double",
                        "defaultValue" : 0.0,
                        "interp" : "eioe"
                      },
                      "sourceCrop2" : {
                        "type" : "double",
                        "defaultValue" : 0.0,
                        "interp" : "eioe"
                      },
                      "sourceCrop3" : {
                        "type" : "double",
                        "defaultValue" : 0.0,
                        "interp" : "eioe"
                      },
                      "geometryCrop0" : {
                        "type" : "double",
                        "defaultValue" : 0.0,
                        "interp" : "eioe"
                      },
                      "geometryCrop1" : {
                        "type" : "double",
                        "defaultValue" : 0.0,
                        "interp" : "eioe"
                      },
                      "geometryCrop2" : {
                        "type" : "double",
                        "defaultValue" : 0.0,
                        "interp" : "eioe"
                      },
                      "geometryCrop3" : {
                        "type" : "double",
                        "defaultValue" : 0.0,
                        "interp" : "eioe"
                      }
                    },
                    "effects" : [

                    ],
                    "start" : 30251,
                    "duration" : 394,
                    "mediaStart" : 0,
                    "mediaDuration" : 1,
                    "scalar" : 1,
                    "metadata" : {
                      "clipSpeedAttribute" : false
                    },
                    "animationTracks" : {

                    }
                  },
                  {
                    "id" : 182,
                    "_type" : "IMFile",
                    "src" : 88,
                    "trackNumber" : 0,
                    "trimStartSum" : 0,
                    "attributes" : {
                      "ident" : "21-Beyond Decentralized Technology Overview v2"
                    },
                    "parameters" : {
                      "sourceCrop0" : {
                        "type" : "double",
                        "defaultValue" : 0.0,
                        "interp" : "eioe"
                      },
                      "sourceCrop1" : {
                        "type" : "double",
                        "defaultValue" : 0.0,
                        "interp" : "eioe"
                      },
                      "sourceCrop2" : {
                        "type" : "double",
                        "defaultValue" : 0.0,
                        "interp" : "eioe"
                      },
                      "sourceCrop3" : {
                        "type" : "double",
                        "defaultValue" : 0.0,
                        "interp" : "eioe"
                      },
                      "geometryCrop0" : {
                        "type" : "double",
                        "defaultValue" : 0.0,
                        "interp" : "eioe"
                      },
                      "geometryCrop1" : {
                        "type" : "double",
                        "defaultValue" : 0.0,
                        "interp" : "eioe"
                      },
                      "geometryCrop2" : {
                        "type" : "double",
                        "defaultValue" : 0.0,
                        "interp" : "eioe"
                      },
                      "geometryCrop3" : {
                        "type" : "double",
                        "defaultValue" : 0.0,
                        "interp" : "eioe"
                      }
                    },
                    "effects" : [

                    ],
                    "start" : 30645,
                    "duration" : 1591,
                    "mediaStart" : 0,
                    "mediaDuration" : 1,
                    "scalar" : 1,
                    "metadata" : {
                      "clipSpeedAttribute" : false
                    },
                    "animationTracks" : {

                    }
                  },
                  {
                    "id" : 183,
                    "_type" : "IMFile",
                    "src" : 89,
                    "trackNumber" : 0,
                    "trimStartSum" : 0,
                    "attributes" : {
                      "ident" : "22-Beyond Decentralized Technology Overview v2"
                    },
                    "parameters" : {
                      "translation0" : {
                        "type" : "double",
                        "defaultValue" : -6.53699316899292e-13,
                        "interp" : "eioe"
                      },
                      "translation1" : {
                        "type" : "double",
                        "defaultValue" : -6.11066752753686e-13,
                        "interp" : "eioe"
                      },
                      "sourceCrop0" : {
                        "type" : "double",
                        "defaultValue" : 0.0,
                        "interp" : "eioe"
                      },
                      "sourceCrop1" : {
                        "type" : "double",
                        "defaultValue" : 0.0,
                        "interp" : "eioe"
                      },
                      "sourceCrop2" : {
                        "type" : "double",
                        "defaultValue" : 0.0,
                        "interp" : "eioe"
                      },
                      "sourceCrop3" : {
                        "type" : "double",
                        "defaultValue" : 0.0,
                        "interp" : "eioe"
                      },
                      "geometryCrop0" : {
                        "type" : "double",
                        "defaultValue" : 0.0,
                        "interp" : "eioe"
                      },
                      "geometryCrop1" : {
                        "type" : "double",
                        "defaultValue" : 0.0,
                        "interp" : "eioe"
                      },
                      "geometryCrop2" : {
                        "type" : "double",
                        "defaultValue" : 0.0,
                        "interp" : "eioe"
                      },
                      "geometryCrop3" : {
                        "type" : "double",
                        "defaultValue" : 0.0,
                        "interp" : "eioe"
                      }
                    },
                    "effects" : [

                    ],
                    "start" : 32236,
                    "duration" : 315,
                    "mediaStart" : 0,
                    "mediaDuration" : 1,
                    "scalar" : 1,
                    "metadata" : {
                      "clipSpeedAttribute" : false,
                      "default-height" : 1080.0,
                      "default-translation0" : 0.0,
                      "default-translation1" : 0.0,
                      "default-width" : 1920.0
                    },
                    "animationTracks" : {

                    }
                  },
                  {
                    "id" : 184,
                    "_type" : "IMFile",
                    "src" : 90,
                    "trackNumber" : 0,
                    "trimStartSum" : 0,
                    "attributes" : {
                      "ident" : "23-Beyond Decentralized Technology Overview v2"
                    },
                    "parameters" : {
                      "sourceCrop0" : {
                        "type" : "double",
                        "defaultValue" : 0.0,
                        "interp" : "eioe"
                      },
                      "sourceCrop1" : {
                        "type" : "double",
                        "defaultValue" : 0.0,
                        "interp" : "eioe"
                      },
                      "sourceCrop2" : {
                        "type" : "double",
                        "defaultValue" : 0.0,
                        "interp" : "eioe"
                      },
                      "sourceCrop3" : {
                        "type" : "double",
                        "defaultValue" : 0.0,
                        "interp" : "eioe"
                      },
                      "geometryCrop0" : {
                        "type" : "double",
                        "defaultValue" : 0.0,
                        "interp" : "eioe"
                      },
                      "geometryCrop1" : {
                        "type" : "double",
                        "defaultValue" : 0.0,
                        "interp" : "eioe"
                      },
                      "geometryCrop2" : {
                        "type" : "double",
                        "defaultValue" : 0.0,
                        "interp" : "eioe"
                      },
                      "geometryCrop3" : {
                        "type" : "double",
                        "defaultValue" : 0.0,
                        "interp" : "eioe"
                      }
                    },
                    "effects" : [

                    ],
                    "start" : 32551,
                    "duration" : 2435,
                    "mediaStart" : 0,
                    "mediaDuration" : 1,
                    "scalar" : 1,
                    "metadata" : {
                      "clipSpeedAttribute" : false
                    },
                    "animationTracks" : {

                    }
                  },
                  {
                    "id" : 185,
                    "_type" : "IMFile",
                    "src" : 91,
                    "trackNumber" : 0,
                    "trimStartSum" : 0,
                    "attributes" : {
                      "ident" : "24-Beyond Decentralized Technology Overview v2"
                    },
                    "parameters" : {
                      "sourceCrop0" : {
                        "type" : "double",
                        "defaultValue" : 0.0,
                        "interp" : "eioe"
                      },
                      "sourceCrop1" : {
                        "type" : "double",
                        "defaultValue" : 0.0,
                        "interp" : "eioe"
                      },
                      "sourceCrop2" : {
                        "type" : "double",
                        "defaultValue" : 0.0,
                        "interp" : "eioe"
                      },
                      "sourceCrop3" : {
                        "type" : "double",
                        "defaultValue" : 0.0,
                        "interp" : "eioe"
                      },
                      "geometryCrop0" : {
                        "type" : "double",
                        "defaultValue" : 0.0,
                        "interp" : "eioe"
                      },
                      "geometryCrop1" : {
                        "type" : "double",
                        "defaultValue" : 0.0,
                        "interp" : "eioe"
                      },
                      "geometryCrop2" : {
                        "type" : "double",
                        "defaultValue" : 0.0,
                        "interp" : "eioe"
                      },
                      "geometryCrop3" : {
                        "type" : "double",
                        "defaultValue" : 0.0,
                        "interp" : "eioe"
                      }
                    },
                    "effects" : [

                    ],
                    "start" : 34986,
                    "duration" : 1361,
                    "mediaStart" : 0,
                    "mediaDuration" : 1,
                    "scalar" : 1,
                    "metadata" : {
                      "clipSpeedAttribute" : false
                    },
                    "animationTracks" : {

                    }
                  },
                  {
                    "id" : 186,
                    "_type" : "IMFile",
                    "src" : 92,
                    "trackNumber" : 0,
                    "trimStartSum" : 0,
                    "attributes" : {
                      "ident" : "25-Beyond Decentralized Technology Overview v2"
                    },
                    "parameters" : {
                      "sourceCrop0" : {
                        "type" : "double",
                        "defaultValue" : 0.0,
                        "interp" : "eioe"
                      },
                      "sourceCrop1" : {
                        "type" : "double",
                        "defaultValue" : 0.0,
                        "interp" : "eioe"
                      },
                      "sourceCrop2" : {
                        "type" : "double",
                        "defaultValue" : 0.0,
                        "interp" : "eioe"
                      },
                      "sourceCrop3" : {
                        "type" : "double",
                        "defaultValue" : 0.0,
                        "interp" : "eioe"
                      },
                      "geometryCrop0" : {
                        "type" : "double",
                        "defaultValue" : 0.0,
                        "interp" : "eioe"
                      },
                      "geometryCrop1" : {
                        "type" : "double",
                        "defaultValue" : 0.0,
                        "interp" : "eioe"
                      },
                      "geometryCrop2" : {
                        "type" : "double",
                        "defaultValue" : 0.0,
                        "interp" : "eioe"
                      },
                      "geometryCrop3" : {
                        "type" : "double",
                        "defaultValue" : 0.0,
                        "interp" : "eioe"
                      }
                    },
                    "effects" : [

                    ],
                    "start" : 36347,
                    "duration" : 855,
                    "mediaStart" : 0,
                    "mediaDuration" : 1,
                    "scalar" : 1,
                    "metadata" : {
                      "clipSpeedAttribute" : false
                    },
                    "animationTracks" : {

                    }
                  },
                  {
                    "id" : 187,
                    "_type" : "IMFile",
                    "src" : 93,
                    "trackNumber" : 0,
                    "trimStartSum" : 0,
                    "attributes" : {
                      "ident" : "26-Beyond Decentralized Technology Overview v2-Validation"
                    },
                    "parameters" : {
                      "sourceCrop0" : {
                        "type" : "double",
                        "defaultValue" : 0.0,
                        "interp" : "eioe"
                      },
                      "sourceCrop1" : {
                        "type" : "double",
                        "defaultValue" : 0.0,
                        "interp" : "eioe"
                      },
                      "sourceCrop2" : {
                        "type" : "double",
                        "defaultValue" : 0.0,
                        "interp" : "eioe"
                      },
                      "sourceCrop3" : {
                        "type" : "double",
                        "defaultValue" : 0.0,
                        "interp" : "eioe"
                      },
                      "geometryCrop0" : {
                        "type" : "double",
                        "defaultValue" : 0.0,
                        "interp" : "eioe"
                      },
                      "geometryCrop1" : {
                        "type" : "double",
                        "defaultValue" : 0.0,
                        "interp" : "eioe"
                      },
                      "geometryCrop2" : {
                        "type" : "double",
                        "defaultValue" : 0.0,
                        "interp" : "eioe"
                      },
                      "geometryCrop3" : {
                        "type" : "double",
                        "defaultValue" : 0.0,
                        "interp" : "eioe"
                      }
                    },
                    "effects" : [

                    ],
                    "start" : 37202,
                    "duration" : 620,
                    "mediaStart" : 0,
                    "mediaDuration" : 1,
                    "scalar" : 1,
                    "metadata" : {
                      "clipSpeedAttribute" : false
                    },
                    "animationTracks" : {

                    }
                  },
                  {
                    "id" : 188,
                    "_type" : "IMFile",
                    "src" : 94,
                    "trackNumber" : 0,
                    "trimStartSum" : 0,
                    "attributes" : {
                      "ident" : "27-Beyond Decentralized Technology Overview v2"
                    },
                    "parameters" : {
                      "sourceCrop0" : {
                        "type" : "double",
                        "defaultValue" : 0.0,
                        "interp" : "eioe"
                      },
                      "sourceCrop1" : {
                        "type" : "double",
                        "defaultValue" : 0.0,
                        "interp" : "eioe"
                      },
                      "sourceCrop2" : {
                        "type" : "double",
                        "defaultValue" : 0.0,
                        "interp" : "eioe"
                      },
                      "sourceCrop3" : {
                        "type" : "double",
                        "defaultValue" : 0.0,
                        "interp" : "eioe"
                      },
                      "geometryCrop0" : {
                        "type" : "double",
                        "defaultValue" : 0.0,
                        "interp" : "eioe"
                      },
                      "geometryCrop1" : {
                        "type" : "double",
                        "defaultValue" : 0.0,
                        "interp" : "eioe"
                      },
                      "geometryCrop2" : {
                        "type" : "double",
                        "defaultValue" : 0.0,
                        "interp" : "eioe"
                      },
                      "geometryCrop3" : {
                        "type" : "double",
                        "defaultValue" : 0.0,
                        "interp" : "eioe"
                      }
                    },
                    "effects" : [

                    ],
                    "start" : 37822,
                    "duration" : 1744,
                    "mediaStart" : 0,
                    "mediaDuration" : 1,
                    "scalar" : 1,
                    "metadata" : {
                      "clipSpeedAttribute" : false
                    },
                    "animationTracks" : {

                    }
                  },
                  {
                    "id" : 189,
                    "_type" : "IMFile",
                    "src" : 95,
                    "trackNumber" : 0,
                    "trimStartSum" : -36,
                    "attributes" : {
                      "ident" : "28-Beyond Decentralized Technology Overview v2"
                    },
                    "parameters" : {
                      "sourceCrop0" : {
                        "type" : "double",
                        "defaultValue" : 0.0,
                        "interp" : "eioe"
                      },
                      "sourceCrop1" : {
                        "type" : "double",
                        "defaultValue" : 0.0,
                        "interp" : "eioe"
                      },
                      "sourceCrop2" : {
                        "type" : "double",
                        "defaultValue" : 0.0,
                        "interp" : "eioe"
                      },
                      "sourceCrop3" : {
                        "type" : "double",
                        "defaultValue" : 0.0,
                        "interp" : "eioe"
                      },
                      "geometryCrop0" : {
                        "type" : "double",
                        "defaultValue" : 0.0,
                        "interp" : "eioe"
                      },
                      "geometryCrop1" : {
                        "type" : "double",
                        "defaultValue" : 0.0,
                        "interp" : "eioe"
                      },
                      "geometryCrop2" : {
                        "type" : "double",
                        "defaultValue" : 0.0,
                        "interp" : "eioe"
                      },
                      "geometryCrop3" : {
                        "type" : "double",
                        "defaultValue" : 0.0,
                        "interp" : "eioe"
                      }
                    },
                    "effects" : [

                    ],
                    "start" : 39566,
                    "duration" : 623,
                    "mediaStart" : 0,
                    "mediaDuration" : 1,
                    "scalar" : 1,
                    "metadata" : {
                      "clipSpeedAttribute" : false
                    },
                    "animationTracks" : {

                    }
                  },
                  {
                    "id" : 190,
                    "_type" : "IMFile",
                    "src" : 96,
                    "trackNumber" : 0,
                    "trimStartSum" : 0,
                    "attributes" : {
                      "ident" : "29-Beyond Decentralized Technology Overview v2"
                    },
                    "parameters" : {
                      "sourceCrop0" : {
                        "type" : "double",
                        "defaultValue" : 0.0,
                        "interp" : "eioe"
                      },
                      "sourceCrop1" : {
                        "type" : "double",
                        "defaultValue" : 0.0,
                        "interp" : "eioe"
                      },
                      "sourceCrop2" : {
                        "type" : "double",
                        "defaultValue" : 0.0,
                        "interp" : "eioe"
                      },
                      "sourceCrop3" : {
                        "type" : "double",
                        "defaultValue" : 0.0,
                        "interp" : "eioe"
                      },
                      "geometryCrop0" : {
                        "type" : "double",
                        "defaultValue" : 0.0,
                        "interp" : "eioe"
                      },
                      "geometryCrop1" : {
                        "type" : "double",
                        "defaultValue" : 0.0,
                        "interp" : "eioe"
                      },
                      "geometryCrop2" : {
                        "type" : "double",
                        "defaultValue" : 0.0,
                        "interp" : "eioe"
                      },
                      "geometryCrop3" : {
                        "type" : "double",
                        "defaultValue" : 0.0,
                        "interp" : "eioe"
                      }
                    },
                    "effects" : [

                    ],
                    "start" : 40189,
                    "duration" : 623,
                    "mediaStart" : 0,
                    "mediaDuration" : 1,
                    "scalar" : 1,
                    "metadata" : {
                      "clipSpeedAttribute" : false
                    },
                    "animationTracks" : {

                    }
                  },
                  {
                    "id" : 191,
                    "_type" : "IMFile",
                    "src" : 97,
                    "trackNumber" : 0,
                    "trimStartSum" : -17,
                    "attributes" : {
                      "ident" : "30-Beyond Decentralized Technology Overview v2"
                    },
                    "parameters" : {
                      "sourceCrop0" : {
                        "type" : "double",
                        "defaultValue" : 0.0,
                        "interp" : "eioe"
                      },
                      "sourceCrop1" : {
                        "type" : "double",
                        "defaultValue" : 0.0,
                        "interp" : "eioe"
                      },
                      "sourceCrop2" : {
                        "type" : "double",
                        "defaultValue" : 0.0,
                        "interp" : "eioe"
                      },
                      "sourceCrop3" : {
                        "type" : "double",
                        "defaultValue" : 0.0,
                        "interp" : "eioe"
                      },
                      "geometryCrop0" : {
                        "type" : "double",
                        "defaultValue" : 0.0,
                        "interp" : "eioe"
                      },
                      "geometryCrop1" : {
                        "type" : "double",
                        "defaultValue" : 0.0,
                        "interp" : "eioe"
                      },
                      "geometryCrop2" : {
                        "type" : "double",
                        "defaultValue" : 0.0,
                        "interp" : "eioe"
                      },
                      "geometryCrop3" : {
                        "type" : "double",
                        "defaultValue" : 0.0,
                        "interp" : "eioe"
                      }
                    },
                    "effects" : [

                    ],
                    "start" : 40812,
                    "duration" : 1014,
                    "mediaStart" : 0,
                    "mediaDuration" : 1,
                    "scalar" : 1,
                    "metadata" : {
                      "clipSpeedAttribute" : false
                    },
                    "animationTracks" : {

                    }
                  },
                  {
                    "id" : 192,
                    "_type" : "IMFile",
                    "src" : 98,
                    "trackNumber" : 0,
                    "trimStartSum" : 0,
                    "attributes" : {
                      "ident" : "31-Beyond Decentralized Technology Overview v2"
                    },
                    "parameters" : {
                      "sourceCrop0" : {
                        "type" : "double",
                        "defaultValue" : 0.0,
                        "interp" : "eioe"
                      },
                      "sourceCrop1" : {
                        "type" : "double",
                        "defaultValue" : 0.0,
                        "interp" : "eioe"
                      },
                      "sourceCrop2" : {
                        "type" : "double",
                        "defaultValue" : 0.0,
                        "interp" : "eioe"
                      },
                      "sourceCrop3" : {
                        "type" : "double",
                        "defaultValue" : 0.0,
                        "interp" : "eioe"
                      },
                      "geometryCrop0" : {
                        "type" : "double",
                        "defaultValue" : 0.0,
                        "interp" : "eioe"
                      },
                      "geometryCrop1" : {
                        "type" : "double",
                        "defaultValue" : 0.0,
                        "interp" : "eioe"
                      },
                      "geometryCrop2" : {
                        "type" : "double",
                        "defaultValue" : 0.0,
                        "interp" : "eioe"
                      },
                      "geometryCrop3" : {
                        "type" : "double",
                        "defaultValue" : 0.0,
                        "interp" : "eioe"
                      }
                    },
                    "effects" : [

                    ],
                    "start" : 41826,
                    "duration" : 1240,
                    "mediaStart" : 0,
                    "mediaDuration" : 1,
                    "scalar" : 1,
                    "metadata" : {
                      "clipSpeedAttribute" : false
                    },
                    "animationTracks" : {

                    }
                  },
                  {
                    "id" : 193,
                    "_type" : "IMFile",
                    "src" : 99,
                    "trackNumber" : 0,
                    "trimStartSum" : 0,
                    "attributes" : {
                      "ident" : "32-Beyond Decentralized Technology Overview v2"
                    },
                    "parameters" : {
                      "sourceCrop0" : {
                        "type" : "double",
                        "defaultValue" : 0.0,
                        "interp" : "eioe"
                      },
                      "sourceCrop1" : {
                        "type" : "double",
                        "defaultValue" : 0.0,
                        "interp" : "eioe"
                      },
                      "sourceCrop2" : {
                        "type" : "double",
                        "defaultValue" : 0.0,
                        "interp" : "eioe"
                      },
                      "sourceCrop3" : {
                        "type" : "double",
                        "defaultValue" : 0.0,
                        "interp" : "eioe"
                      },
                      "geometryCrop0" : {
                        "type" : "double",
                        "defaultValue" : 0.0,
                        "interp" : "eioe"
                      },
                      "geometryCrop1" : {
                        "type" : "double",
                        "defaultValue" : 0.0,
                        "interp" : "eioe"
                      },
                      "geometryCrop2" : {
                        "type" : "double",
                        "defaultValue" : 0.0,
                        "interp" : "eioe"
                      },
                      "geometryCrop3" : {
                        "type" : "double",
                        "defaultValue" : 0.0,
                        "interp" : "eioe"
                      }
                    },
                    "effects" : [

                    ],
                    "start" : 43066,
                    "duration" : 416,
                    "mediaStart" : 0,
                    "mediaDuration" : 1,
                    "scalar" : 1,
                    "metadata" : {
                      "clipSpeedAttribute" : false
                    },
                    "animationTracks" : {

                    }
                  },
                  {
                    "id" : 194,
                    "_type" : "IMFile",
                    "src" : 100,
                    "trackNumber" : 0,
                    "trimStartSum" : 0,
                    "attributes" : {
                      "ident" : "33-Beyond Decentralized Technology Overview v2"
                    },
                    "parameters" : {
                      "sourceCrop0" : {
                        "type" : "double",
                        "defaultValue" : 0.0,
                        "interp" : "eioe"
                      },
                      "sourceCrop1" : {
                        "type" : "double",
                        "defaultValue" : 0.0,
                        "interp" : "eioe"
                      },
                      "sourceCrop2" : {
                        "type" : "double",
                        "defaultValue" : 0.0,
                        "interp" : "eioe"
                      },
                      "sourceCrop3" : {
                        "type" : "double",
                        "defaultValue" : 0.0,
                        "interp" : "eioe"
                      },
                      "geometryCrop0" : {
                        "type" : "double",
                        "defaultValue" : 0.0,
                        "interp" : "eioe"
                      },
                      "geometryCrop1" : {
                        "type" : "double",
                        "defaultValue" : 0.0,
                        "interp" : "eioe"
                      },
                      "geometryCrop2" : {
                        "type" : "double",
                        "defaultValue" : 0.0,
                        "interp" : "eioe"
                      },
                      "geometryCrop3" : {
                        "type" : "double",
                        "defaultValue" : 0.0,
                        "interp" : "eioe"
                      }
                    },
                    "effects" : [

                    ],
                    "start" : 43482,
                    "duration" : 509,
                    "mediaStart" : 0,
                    "mediaDuration" : 1,
                    "scalar" : 1,
                    "metadata" : {
                      "clipSpeedAttribute" : false
                    },
                    "animationTracks" : {

                    }
                  }
                ]
              },
              {
                "trackIndex" : 2,
                "medias" : [
                ]
              }            ]
          }
        }
      ]
    },
    "trackAttributes" : [
      {
        "ident" : "",
        "audioMuted" : false,
        "videoHidden" : false,
        "magnetic" : false,
        "matte" : 0,
        "solo" : false,
        "metadata" : {
          "IsLocked" : "False",
          "WinTrackHeight" : "56"
        }
      },
      {
        "ident" : "",
        "audioMuted" : false,
        "videoHidden" : false,
        "magnetic" : false,
        "matte" : 0,
        "solo" : false,
        "metadata" : {
          "IsLocked" : "False",
          "WinTrackHeight" : "56"
        }
      },
      {
        "ident" : "",
        "audioMuted" : false,
        "videoHidden" : false,
        "magnetic" : false,
        "matte" : 0,
        "solo" : false,
        "metadata" : {
          "IsLocked" : "False",
          "WinTrackHeight" : "56"
        }
      }
    ],
    "captionAttributes" : {
      "enabled" : true,
      "fontName" : "Arial",
      "fontSize" : 64,
      "backgroundColor" : [ 0, 0, 0, 191],
      "foregroundColor" : [ 255, 255, 255, 255],
      "lang" : "en",
      "alignment" : 0,
      "defaultFontSize" : true,
      "opacity" : 0.5,
      "backgroundEnabled" : true,
      "backgroundOnlyAroundText" : true
    },
    "gain" : 1.0,
    "legacyAttenuateAudioMix" : false,
    "backgroundColor" : [ 0, 0, 0, 255]
  },
  "metadata" : {
    "AutoSaveFile" : "C:\\Users\\Papa\\AppData\\Local\\TechSmith\\Camtasia Studio\\21.0\\Auto-Saves\\Beyond Decentralized Tech Overview374b42b5.autosave.tscproj",
    "CanvasZoom" : 50,
    "Date" : "2022-08-14 04:58:51 PM",
    "Fit" : 0,
    "IsAutoSave" : false,
    "IsStandalone" : true,
    "Language" : "ENU",
    "ProfileName" : "",
    "ProjectDimensionsChanged" : "1",
    "Title" : "Beyond Decentralized Tech Overview",
    "audioNarrationNotes" : "",
    "calloutStyle" : "Basic"
  }
}
